<?xml version="1.0" encoding="UTF-8"?>
<svg version="1.1" xmlns="http://www.w3.org/2000/svg" width="478" height="522">
<path d="M0 0 C11.79294682 1.56672924 23.57856522 2.95843149 35.42236328 4.08251953 C47.74607824 5.26555632 60.01470768 6.75524982 72.28955078 8.36376953 C73.19118076 8.48183456 74.09281075 8.5998996 75.02176285 8.72154236 C82.46263946 9.69768726 89.90204216 10.68488927 97.34130859 11.67321777 C103.82332556 12.53400145 110.30588409 13.39049501 116.78955078 14.23876953 C117.68179667 14.35551592 118.57404255 14.47226231 119.49332619 14.59254646 C130.08609634 15.97212036 140.65647331 17.20987582 151.30969238 18.02859497 C163.37045957 18.97951089 175.36384817 20.58977973 187.35961914 22.13891602 C190.85785086 22.59021753 194.35763621 23.02804497 197.85794735 23.46288204 C200.5981697 23.80542712 203.33720564 24.15681601 206.07599068 24.51065254 C207.98504375 24.75522406 209.89521522 24.99101559 211.80540466 25.22654724 C227.31664909 27.2675586 227.31664909 27.2675586 233.38720703 32.42236328 C233.92990234 32.85935547 234.47259766 33.29634766 235.03173828 33.74658203 C240.62684747 40.95648223 240.00398018 49.43111531 239.96289062 58.10205078 C239.96696135 59.54836421 239.97230603 60.99467452 239.9788208 62.440979 C239.9924408 66.35008695 239.98721789 70.25895607 239.97768354 74.16806793 C239.97005927 78.26960365 239.97714022 82.37111968 239.98184204 86.47265625 C239.98729156 93.35892385 239.98012914 100.24509475 239.96582031 107.13134766 C239.94949532 115.07941119 239.9547844 123.0272438 239.97129953 130.97530174 C239.98493736 137.81376807 239.98682285 144.6521651 239.97898352 151.49064064 C239.97431961 155.56864835 239.97364672 159.6465477 239.98359299 163.72454834 C239.99229392 167.55945329 239.98618412 171.3940621 239.96891022 175.22893524 C239.96496199 176.63172668 239.96605076 178.03454328 239.97269821 179.43732452 C240.04040523 195.1835183 240.04040523 195.1835183 234.9777832 201.83203125 C229.16232247 206.74946416 222.82812405 209.80088192 215.88720703 212.85986328 C214.79214844 213.35873047 213.69708984 213.85759766 212.56884766 214.37158203 C205.94667458 217.35721156 199.24962534 220.04790095 192.45678711 222.61816406 C188.96888921 223.96959523 185.63187863 225.48640223 182.26220703 227.10986328 C176.48008582 229.86178193 170.65422752 232.48353607 164.7800293 235.0324707 C161.15006823 236.60828481 157.52705306 238.19747786 153.91455078 239.81298828 C153.12862549 240.16433838 152.3427002 240.51568848 151.53295898 240.87768555 C150.03470796 241.54850444 148.53709256 242.22074581 147.0402832 242.89477539 C143.28342227 244.57514522 139.50952356 246.17159941 135.68017578 247.68017578 C129.55897201 250.10354526 123.60400889 252.86948138 117.63525391 255.64306641 C116.79414063 256.02785156 115.95302734 256.41263672 115.08642578 256.80908203 C114.3383667 257.15543701 113.59030762 257.50179199 112.81958008 257.85864258 C110.42157742 258.79463296 108.1078466 259.30128793 105.57470703 259.73486328 C105.24470703 260.93111328 104.91470703 262.12736328 104.57470703 263.35986328 C102.66410917 269.12804922 99.62095623 274.19079552 96.53955078 279.38720703 C95.00891868 281.99506332 93.61851994 284.599642 92.26220703 287.29736328 C88.99202266 293.24820898 84.30115606 298.21083068 79.84033203 303.28564453 C78.2406386 305.11739226 76.69091256 306.98907499 75.13720703 308.85986328 C73.04265016 311.20985392 71.25519695 313.10742297 68.57470703 314.73486328 C67.91470703 314.73486328 67.25470703 314.73486328 66.57470703 314.73486328 C66.35814453 315.30076172 66.14158203 315.86666016 65.91845703 316.44970703 C61.28433758 324.33040436 49.89711126 329.955151 42.26220703 334.67236328 C41.52228516 335.13263916 40.78236328 335.59291504 40.02001953 336.06713867 C35.32759484 338.90389408 30.74193984 340.90823003 25.57470703 342.73486328 C24.37765826 343.3413742 23.18883424 343.96462715 22.01220703 344.60986328 C-7.5018011 359.50903501 -45.71921515 359.59904104 -77.42529297 353.73486328 C-79.29121094 353.42742187 -79.29121094 353.42742187 -81.19482422 353.11376953 C-90.33785164 351.43145249 -98.71484089 348.1753259 -107.26513672 344.62695312 C-109.27986057 343.79492318 -111.30319979 342.99000801 -113.33154297 342.19189453 C-119.87869888 339.5374498 -125.59260461 336.60699402 -131.24169922 332.34814453 C-133.4605839 330.64226507 -133.4605839 330.64226507 -136.20263672 329.15283203 C-136.93611328 328.68490234 -137.66958984 328.21697266 -138.42529297 327.73486328 C-138.42529297 327.07486328 -138.42529297 326.41486328 -138.42529297 325.73486328 C-138.98345703 325.64720703 -139.54162109 325.55955078 -140.11669922 325.46923828 C-146.76685002 323.35379268 -152.71395743 316.69416385 -157.42529297 311.73486328 C-158.09818359 311.09419922 -158.77107422 310.45353516 -159.46435547 309.79345703 C-160.55876953 308.74351562 -160.55876953 308.74351562 -161.67529297 307.67236328 C-162.36107422 307.02138672 -163.04685547 306.37041016 -163.75341797 305.69970703 C-165.42529297 303.73486328 -165.42529297 303.73486328 -165.90966797 301.61376953 C-166.07982422 300.99373047 -166.24998047 300.37369141 -166.42529297 299.73486328 C-167.30314453 299.31527344 -167.30314453 299.31527344 -168.19873047 298.88720703 C-171.50299147 297.17710704 -173.08055952 294.34128264 -175.05029297 291.29736328 C-175.47834229 290.64501709 -175.9063916 289.9926709 -176.34741211 289.32055664 C-179.79152105 283.95824158 -182.8837266 278.42922787 -185.86279297 272.79736328 C-186.2754541 272.01756104 -186.68811523 271.23775879 -187.11328125 270.43432617 C-202.24955153 241.14567441 -203.25253062 206.17465268 -195.42529297 174.73486328 C-195.17650391 173.67654297 -194.92771484 172.61822266 -194.67138672 171.52783203 C-190.47665908 154.77289134 -181.73058322 137.81233417 -170.42529297 124.73486328 C-169.76529297 123.88923828 -169.10529297 123.04361328 -168.42529297 122.17236328 C-163.75953123 116.48596616 -159.16159328 111.34884396 -153.42529297 106.73486328 C-152.57966797 105.88923828 -151.73404297 105.04361328 -150.86279297 104.17236328 C-147.0193556 100.32892591 -143.60460052 97.51062587 -138.42529297 95.73486328 C-138.42529297 95.07486328 -138.42529297 94.41486328 -138.42529297 93.73486328 C-116.09223617 76.05135073 -86.19757384 68.04011399 -58.42529297 64.73486328 C-58.41942673 64.12844498 -58.41356049 63.52202667 -58.40751648 62.89723206 C-58.34330352 56.5535035 -58.25881336 50.21026922 -58.1628418 43.86694336 C-58.12970277 41.50340312 -58.10163695 39.13978583 -58.07885742 36.77612305 C-58.04510874 33.36750634 -57.99278168 29.95958865 -57.93701172 26.55126953 C-57.9306218 25.50403214 -57.92423187 24.45679474 -57.91764832 23.37782288 C-57.77218013 16.02614731 -57.10048544 9.07248436 -52.37451172 3.17626953 C-51.62814453 2.55623047 -50.88177734 1.93619141 -50.11279297 1.29736328 C-49.37416016 0.65927734 -48.63552734 0.02119141 -47.87451172 -0.63623047 C-35.62387059 -8.78378605 -13.73364009 -1.83161049 0 0 Z " fill="#0A0A07" transform="translate(220.42529296875,22.26513671875)"/>
<path d="M0 0 C0.22581349 18.53039193 -0.39993984 36.98584596 -1.16802979 55.49487305 C-1.52510578 64.10026463 -1.86392662 72.70638841 -2.203125 81.3125 C-2.23749287 82.18106125 -2.27186073 83.0496225 -2.30727005 83.94450378 C-3.11423268 104.3817825 -3.75389263 124.82328827 -4.35302734 145.26757812 C-4.42523365 147.70964199 -4.4976557 150.15169949 -4.5703125 152.59375 C-4.60472443 153.75716415 -4.63913635 154.92057831 -4.67459106 156.11924744 C-4.89056697 163.16874249 -5.18761808 170.21001277 -5.5390625 177.25390625 C-6.0605291 187.95342602 -6.21970287 198.64425587 -6.24023438 209.35571289 C-6.25016016 212.48804214 -6.28144746 215.61977036 -6.3125 218.75195312 C-6.31901376 220.77082954 -6.32427057 222.7897105 -6.328125 224.80859375 C-6.3466452 226.1929789 -6.3466452 226.1929789 -6.36553955 227.60533142 C-6.34255099 234.26526527 -5.44015097 239.19012918 -0.9375 244.375 C2.90899713 247.60109437 6.39376972 247.56653075 11.296875 247.5546875 C18.12711344 246.53159271 23.99362677 243.13961363 30.06298828 239.97875977 C32.97962638 238.50500099 35.99025562 237.27099602 39 236 C42.5090027 234.41544556 46.00345148 232.7993179 49.5 231.1875 C59.80601765 226.44917498 70.13719892 221.76888453 80.47851562 217.1083374 C90.48016161 212.5999916 100.46449665 208.055684 110.42773438 203.46289062 C114.13994144 201.75426561 117.85001518 200.06395457 121.609375 198.4609375 C126.49018447 196.35791591 131.25950193 194.0279482 136.03515625 191.69726562 C137.12376953 191.17616211 137.12376953 191.17616211 138.234375 190.64453125 C138.88631836 190.32846924 139.53826172 190.01240723 140.20996094 189.68676758 C142 189 142 189 145 189 C140.3728293 198.47896133 134.87498146 207.0070309 128 215 C126.95005859 216.23363281 126.95005859 216.23363281 125.87890625 217.4921875 C113.98000537 231.1091115 100.345122 241.40869802 84.3671875 249.74609375 C81.97370247 250.97702426 81.97370247 250.97702426 79.67333984 252.45947266 C75.28780679 254.98666111 70.54148535 256.35739334 65.75 257.9375 C64.7703125 258.27201172 63.790625 258.60652344 62.78125 258.95117188 C59.53671625 260.0306033 56.2797537 261.0326962 53 262 C52.06267532 262.27751602 52.06267532 262.27751602 51.10641479 262.56063843 C40.08610148 265.73432117 29.63168097 266.60402865 18.18920898 266.46655273 C15.56754999 266.43755586 12.94792394 266.44601146 10.32617188 266.45898438 C-6.49647785 266.44213571 -21.76425766 263.95007678 -37.625 258.3125 C-39.43484375 257.68891602 -39.43484375 257.68891602 -41.28125 257.05273438 C-44.19217025 256.04777381 -47.09798838 255.03034013 -50 254 C-50 253.34 -50 252.68 -50 252 C-50.81726563 251.93296875 -51.63453125 251.8659375 -52.4765625 251.796875 C-57.0525639 250.76194785 -60.42359135 248.71936362 -64.375 246.25 C-65.16011963 245.76265381 -65.94523926 245.27530762 -66.75415039 244.77319336 C-87.49229288 231.60423321 -106.17776351 213.33872967 -117 191 C-117.39316406 190.22269531 -117.78632812 189.44539062 -118.19140625 188.64453125 C-130.44347438 163.25701705 -136.57046879 131.47027122 -128 104 C-127.71640625 102.90300781 -127.4328125 101.80601562 -127.140625 100.67578125 C-125.26534159 93.59411892 -122.92855395 87.27526107 -119.46484375 80.81640625 C-117.9193049 77.94722957 -117.9193049 77.94722957 -116.60546875 74.609375 C-114.8540651 70.67191279 -112.77850041 67.24929145 -110.375 63.6875 C-109.93841064 63.03595947 -109.50182129 62.38441895 -109.05200195 61.71313477 C-105.70230727 56.81342796 -102.02312787 52.37847695 -97.94140625 48.0625 C-95.84658539 45.90271662 -95.84658539 45.90271662 -93.625 42.9375 C-80.12236432 27.82740769 -60.13863198 15.46488906 -41 9 C-39.57124737 8.49191687 -38.142884 7.98273822 -36.71484375 7.47265625 C-24.60012848 3.21423696 -12.92909941 -0.09505465 0 0 Z " fill="#FDFDFD" transform="translate(164,100)"/>
<path d="M0 0 C25.25427084 -0.4212946 48.15823964 2.41977946 72 11 C71.51321777 11.79736572 71.51321777 11.79736572 71.01660156 12.61083984 C69.73860609 15.61431336 69.7410784 17.96535964 69.734375 21.2265625 C69.73179687 22.4228125 69.72921875 23.6190625 69.7265625 24.8515625 C69.73816406 26.71941406 69.73816406 26.71941406 69.75 28.625 C69.74226563 29.87796875 69.73453125 31.1309375 69.7265625 32.421875 C69.73042969 34.21238281 69.73042969 34.21238281 69.734375 36.0390625 C69.73775879 37.68189209 69.73775879 37.68189209 69.74121094 39.35791016 C69.73309016 42.156296 69.73309016 42.156296 72 44 C74.50920846 44.17495606 76.90624941 44.23169569 79.4140625 44.1953125 C80.50852188 44.19106766 80.50852188 44.19106766 81.62509155 44.18673706 C83.95856028 44.17553002 86.29164703 44.1504251 88.625 44.125 C90.20572363 44.11497085 91.78645327 44.10584489 93.3671875 44.09765625 C97.24493914 44.07558905 101.12240478 44.04105615 105 44 C105.66 40.37 106.32 36.74 107 33 C112.37063891 35.68531945 115.34803407 38.69606813 118 44 C119.485 44.495 119.485 44.495 121 45 C125.39641344 49.72488111 134 59.54629524 134 66 C133.07316406 66.04898438 132.14632812 66.09796875 131.19140625 66.1484375 C129.39509766 66.26058594 129.39509766 66.26058594 127.5625 66.375 C125.77005859 66.47941406 125.77005859 66.47941406 123.94140625 66.5859375 C122.48541016 66.79089844 122.48541016 66.79089844 121 67 C119.62737724 69.74524552 119.8703119 71.96219295 119.8671875 75.03125 C119.86589844 76.23394531 119.86460937 77.43664062 119.86328125 78.67578125 C119.86714844 79.93777344 119.87101562 81.19976562 119.875 82.5 C119.87113281 83.76199219 119.86726563 85.02398437 119.86328125 86.32421875 C119.86457031 87.52691406 119.86585938 88.72960937 119.8671875 89.96875 C119.86887939 91.63067383 119.86887939 91.63067383 119.87060547 93.32617188 C119.81848531 95.97318516 119.81848531 95.97318516 121 98 C134.365 98.495 134.365 98.495 148 99 C150.25 106.875 150.25 106.875 150.125 111.4375 C150.10695313 112.30246094 150.08890625 113.16742188 150.0703125 114.05859375 C150.04710937 114.69925781 150.02390625 115.33992188 150 116 C149.22285645 116.02505615 148.44571289 116.0501123 147.64501953 116.07592773 C144.13816931 116.19166796 140.63160255 116.31449352 137.125 116.4375 C135.90167969 116.47681641 134.67835938 116.51613281 133.41796875 116.55664062 C132.25136719 116.59853516 131.08476562 116.64042969 129.8828125 116.68359375 C128.80402832 116.72025146 127.72524414 116.75690918 126.61376953 116.79467773 C124.01930464 116.83376643 124.01930464 116.83376643 122 118 C121.9753015 121.95099928 121.95714077 125.90196874 121.94506836 129.85302734 C121.93755964 131.85906551 121.9248553 133.86508202 121.91210938 135.87109375 C121.90888672 137.12792969 121.90566406 138.38476562 121.90234375 139.6796875 C121.89710693 140.84226074 121.89187012 142.00483398 121.88647461 143.20263672 C121.80643717 145.95502192 121.80643717 145.95502192 123 148 C136.365 148.495 136.365 148.495 150 149 C149.54625 151.35125 149.0925 153.7025 148.625 156.125 C148.48658691 156.85348145 148.34817383 157.58196289 148.20556641 158.33251953 C147.40419115 162.40792724 146.32664202 166.02007395 145 170 C137.74 170 130.48 170 123 170 C122.13580777 172.59257669 121.82419068 174.34037707 121.68359375 177.01171875 C121.64169922 177.76904297 121.59980469 178.52636719 121.55664062 179.30664062 C121.51732422 180.09232422 121.47800781 180.87800781 121.4375 181.6875 C121.37272461 182.88342773 121.37272461 182.88342773 121.30664062 184.10351562 C121.20072632 186.06881447 121.09987449 188.03438496 121 190 C119.56570999 190.67354499 118.12742943 191.33859701 116.6875 192 C115.88699219 192.37125 115.08648437 192.7425 114.26171875 193.125 C112 194 112 194 109 194 C108.96241577 193.00818726 108.96241577 193.00818726 108.92407227 191.99633789 C108.80846898 189.01817695 108.68558246 186.0403608 108.5625 183.0625 C108.52318359 182.02158203 108.48386719 180.98066406 108.44335938 179.90820312 C108.40146484 178.91884766 108.35957031 177.92949219 108.31640625 176.91015625 C108.27974854 175.99371338 108.24309082 175.07727051 108.20532227 174.13305664 C108.22996136 172.0179272 108.22996136 172.0179272 107 171 C104.49075847 170.89912788 102.00963616 170.86027968 99.5 170.8671875 C98.74912109 170.86623077 97.99824219 170.86527405 97.22460938 170.86428833 C95.63411373 170.86360662 94.04361533 170.86546028 92.453125 170.86962891 C90.01035345 170.87497733 87.56776579 170.86968366 85.125 170.86328125 C83.58333293 170.86394203 82.04166597 170.8652232 80.5 170.8671875 C79.76458984 170.86516327 79.02917969 170.86313904 78.27148438 170.86105347 C74.84753658 170.56943487 74.84753658 170.56943487 72 172 C71.91216458 174.21855264 71.89305391 176.43988496 71.90234375 178.66015625 C71.9037587 179.32462265 71.90517365 179.98908905 71.90663147 180.6736908 C71.91224482 182.80333899 71.92479946 184.93288339 71.9375 187.0625 C71.94251329 188.50325369 71.94707649 189.94400903 71.95117188 191.38476562 C71.96136924 194.92324958 71.9809417 198.46150813 72 202 C77.94 202.33 83.88 202.66 90 203 C86.70492542 206.29507458 82.14731925 207.65513203 77.90258789 209.46508789 C73.33848722 211.44059415 68.92834678 213.53801026 64.5703125 215.9375 C50.86592449 223.32627553 39.72795906 225.5085506 24.15698242 224.7421875 C23.08927612 224.86980469 23.08927612 224.86980469 22 225 C19.65486199 227.94568545 19.65486199 227.94568545 19.875 231.9375 C19.67578125 234.05859375 19.67578125 234.05859375 19 236 C16.09128503 238.31798257 12.76272068 240 9 240 C8.96261719 239.08476562 8.92523438 238.16953125 8.88671875 237.2265625 C8.82097656 236.03804687 8.75523437 234.84953125 8.6875 233.625 C8.62949219 232.44164062 8.57148438 231.25828125 8.51171875 230.0390625 C8.34285156 229.03617188 8.17398438 228.03328125 8 227 C4.59568053 224.73045369 2.83475798 224.63450051 -1.1875 224.375 C-2.27417969 224.30023438 -3.36085937 224.22546875 -4.48046875 224.1484375 C-5.72763672 224.07496094 -5.72763672 224.07496094 -7 224 C-7.0270203 221.24993392 -7.04684883 218.50013454 -7.0625 215.75 C-7.07087891 214.97269531 -7.07925781 214.19539062 -7.08789062 213.39453125 C-7.09111328 212.64042969 -7.09433594 211.88632812 -7.09765625 211.109375 C-7.10289307 210.41811523 -7.10812988 209.72685547 -7.11352539 209.01464844 C-7 207 -7 207 -6 203 C-1.38 202.67 3.24 202.34 8 202 C9.62091604 197.13725189 9.26780189 192.15510494 9.3125 187.0625 C9.34150391 185.96486328 9.37050781 184.86722656 9.40039062 183.73632812 C9.40876953 182.67994141 9.41714844 181.62355469 9.42578125 180.53515625 C9.44036377 179.569729 9.45494629 178.60430176 9.4699707 177.60961914 C9.15204018 174.93716014 9.15204018 174.93716014 7.59838867 172.71655273 C4.11890207 170.12839086 4.11890207 170.12839086 -5 170 C-5 163.07 -5 156.14 -5 149 C-2.23307292 148.83723958 0.53385417 148.67447917 3.30078125 148.51171875 C6.39223013 147.92564089 7.13827881 147.47471062 9 145 C9.64323049 141.05161415 9.46321294 137.05735662 9.4375 133.0625 C9.45748047 131.96486328 9.47746094 130.86722656 9.49804688 129.73632812 C9.49708008 128.15174805 9.49708008 128.15174805 9.49609375 126.53515625 C9.49794678 125.569729 9.4997998 124.60430176 9.50170898 123.60961914 C8.82944982 120.11289009 7.92335433 119.03244381 5 117 C1.04 116.505 1.04 116.505 -3 116 C-3 110.39 -3 104.78 -3 99 C0.96 98.01 0.96 98.01 5 97 C7.20746516 93.68880227 7.24761779 92.66619751 7.23046875 88.81640625 C7.22853516 87.80642578 7.22660156 86.79644531 7.22460938 85.75585938 C7.21236328 84.70205078 7.20011719 83.64824219 7.1875 82.5625 C7.1865332 80.98758789 7.1865332 80.98758789 7.18554688 79.38085938 C7.18819154 73.11654997 7.18819154 73.11654997 6 67 C2.04 66.505 2.04 66.505 -2 66 C-2.02710123 63.4374282 -2.04688771 60.87514635 -2.0625 58.3125 C-2.07087891 57.59126953 -2.07925781 56.87003906 -2.08789062 56.12695312 C-2.10543632 52.28444618 -1.93524221 48.73360474 -1 45 C-0.05125 44.731875 0.8975 44.46375 1.875 44.1875 C5.25267273 43.25013412 5.25267273 43.25013412 7 40 C7.46189533 36.20275459 7.37032435 32.38484551 7.375 28.5625 C7.39949219 27.51255859 7.42398438 26.46261719 7.44921875 25.38085938 C7.45308594 24.36958984 7.45695313 23.35832031 7.4609375 22.31640625 C7.46915527 21.39287354 7.47737305 20.46934082 7.48583984 19.51782227 C6.8512246 16.22898455 5.58113092 15.06881643 3 13 C2.01 12.67 1.02 12.34 0 12 C0 8.04 0 4.08 0 0 Z " fill="#1BA61C" transform="translate(169,102)"/>
<path d="M0 0 C5.01171896 2.72376031 9.63044453 5.79085373 14.28125 9.08984375 C19.12178905 12.49073972 24.06896181 15.73237325 29 19 C37.38680005 24.5582275 45.72922553 30.17170304 54.00976562 35.88720703 C62.02441551 41.41044798 70.14046364 46.77975502 78.25390625 52.15625 C83.70725313 55.77788522 89.10497111 59.46105278 94.45703125 63.23046875 C100.27250481 67.27718077 106.20723786 71.14983888 112.11328125 75.0625 C122.04064936 81.65287602 131.89766674 88.34630893 141.75 95.0480957 C142.9100973 95.83683801 144.07025293 96.62549453 145.23046875 97.4140625 C145.79695633 97.79916489 146.36344391 98.18426727 146.94709778 98.58103943 C151.71788405 101.81928054 156.51797703 105.01164265 161.32958984 108.18896484 C164.08594435 110.05828627 166.75731869 112.02360083 169.4375 114 C175.49921671 117.80497369 181.01360423 118.37408039 188 117 C195.06069907 114.12979712 200.47461579 107.94241868 205.9609375 102.79296875 C208.70959379 100.23366434 211.57023454 97.85141118 214.5 95.5 C218.47629426 92.30068278 222.26668298 88.97415055 226 85.5 C230.60655425 81.21364389 235.37127273 77.20247989 240.2734375 73.25390625 C244.10805809 70.08402648 247.75862166 66.7282411 251.421875 63.36328125 C264.90909091 51 264.90909091 51 268 51 C268.14017681 67.60268839 268.24597381 84.20518477 268.31087303 100.80832195 C268.34180824 108.5175168 268.38398155 116.22634392 268.45263672 123.93530273 C268.51244998 130.65465074 268.55115161 137.37373244 268.56453097 144.09333926 C268.57235181 147.65131873 268.59072309 151.20853638 268.63438034 154.76627159 C268.68272765 158.73845038 268.68393858 162.70988465 268.68115234 166.68237305 C268.702724 167.8612912 268.72429565 169.04020935 268.746521 170.25485229 C268.68740211 178.02378896 268.68740211 178.02378896 266.71678543 180.82235146 C263.62072338 183.49177617 260.0808353 185.0000842 256.25 186.3125 C250.63828808 188.34610203 245.19474857 190.61666104 239.75 193.0625 C239.01813477 193.39096924 238.28626953 193.71943848 237.53222656 194.05786133 C236.07997015 194.71105037 234.62806721 195.36502587 233.17651367 196.01977539 C225.70582482 199.38430884 218.20093557 202.66973606 210.6875 205.9375 C209.66422607 206.38279053 208.64095215 206.82808105 207.58666992 207.28686523 C202.67766632 209.41878208 197.76505016 211.5332316 192.8125 213.5625 C185.74285888 216.47352869 178.79601959 219.66328054 171.83203125 222.81640625 C170.63441162 223.35612061 170.63441162 223.35612061 169.41259766 223.90673828 C167.76787102 224.65204145 166.12704479 225.40599804 164.48974609 226.16748047 C163.69262207 226.53373535 162.89549805 226.89999023 162.07421875 227.27734375 C161.36225342 227.60855225 160.65028809 227.93976074 159.91674805 228.28100586 C158 229 158 229 155 229 C154.94443262 227.52129029 154.90652488 226.04191756 154.875 224.5625 C154.85179687 223.73878906 154.82859375 222.91507813 154.8046875 222.06640625 C154.97047073 219.46360953 155.36195306 217.36932215 155.98901367 214.86181641 C157.03519915 210.24691064 157.33622704 205.86463226 157.37109375 201.14453125 C157.38229752 200.3286705 157.39350128 199.51280975 157.40504456 198.67222595 C157.43216263 196.05210329 157.43869794 193.43275678 157.4375 190.8125 C157.43810425 189.46883362 157.43810425 189.46883362 157.4387207 188.09802246 C157.40261852 174.18809844 156.58929531 161.24686594 152 148 C151.5659082 146.71923584 151.5659082 146.71923584 151.12304688 145.41259766 C138.38172204 108.80495894 111.98406403 84.64251539 77.80810547 67.82617188 C75.58311408 66.80951364 73.36141546 66.07173152 71 65.4375 C67.99285778 64.61967923 65.09279819 63.67700631 62.18359375 62.56640625 C49.75689047 57.84495697 37.09719159 55.07003326 24 53 C22.93007812 52.80535156 21.86015625 52.61070313 20.7578125 52.41015625 C15.38515514 51.43395723 10.08741135 50.81104467 4.63671875 50.4453125 C2.76632935 50.31793701 2.76632935 50.31793701 0.8581543 50.18798828 C-0.55663208 50.09493408 -0.55663208 50.09493408 -2 50 C-2.02508834 45.27181364 -2.04303969 40.54366769 -2.05493164 35.81542969 C-2.0598995 34.21353478 -2.06667608 32.61164426 -2.07543945 31.00976562 C-2.18477688 10.48005617 -2.18477688 10.48005617 -1 1 C-0.67 0.67 -0.34 0.34 0 0 Z " fill="#F1B937" transform="translate(178,35)"/>
<path d="M0 0 C7.60132764 0.60899845 15.11089942 1.52340579 22.6484375 2.671875 C23.73128525 2.83462921 24.814133 2.99738342 25.92979431 3.16506958 C29.4120656 3.68990016 32.89353756 4.21983292 36.375 4.75 C38.78149169 5.11346023 41.18798584 5.47690417 43.59448242 5.84033203 C55.86390195 7.70222656 68.10236774 9.65756339 80.3125 11.875 C89.4180848 13.52044482 98.41877315 14.61727879 107.65026855 15.23591614 C115.03829277 15.76237786 122.30371449 16.69407569 129.625 17.80078125 C140.30679703 19.36973997 150.99602571 20.78354194 161.71484375 22.0703125 C162.4193976 22.15501989 163.12395145 22.23972729 163.84985542 22.32700157 C168.15282083 22.84356482 172.45627874 23.35592079 176.75994873 23.86657715 C182.57800955 24.55704074 188.39566331 25.25085462 194.21286201 25.94854355 C196.20254722 26.18637202 198.19256876 26.42138141 200.18260193 26.65628052 C207.17999414 27.49313852 214.141048 28.44554471 221.09706116 29.57788086 C226.81920378 30.40994314 232.6043833 30.71369527 238.375 31.03515625 C243.77418308 31.43706173 247.07739701 31.89456382 251 36 C249.41892665 40.37915711 245.97823149 42.82460919 242.5 45.6875 C241.22176892 46.75935938 239.94442981 47.83228334 238.66796875 48.90625 C238.04067871 49.4321875 237.41338867 49.958125 236.76708984 50.5 C234.39971152 52.50955684 232.10372348 54.59182377 229.8125 56.6875 C225.6079621 60.50730894 221.24163339 64.0836688 216.8203125 67.6484375 C212.80948764 70.99264327 209.01408226 74.54770151 205.21484375 78.12890625 C203 80 203 80 201 80 C201 80.66 201 81.32 201 82 C199.42713316 83.41438406 197.78860004 84.75604401 196.125 86.0625 C192.31164438 89.11025865 188.60191191 92.20500341 185 95.5 C180.51671606 99.58748841 175.87101325 103.43800332 171.15234375 107.25 C169.14403815 108.82177538 169.14403815 108.82177538 168 110 C161.1655338 110.91478055 157.79984957 108.3732235 152.5625 104.5 C150.87766225 103.30017105 149.19139476 102.10234795 147.50390625 100.90625 C146.6133252 100.26945312 145.72274414 99.63265625 144.80517578 98.9765625 C139.93913038 95.54788508 134.96499619 92.28292695 130 89 C120.43348219 82.64374336 110.93322749 76.19809983 101.46728516 69.69335938 C89.36307547 61.3859382 77.2434424 53.10119991 65 45 C56.44533515 39.33957805 47.96774482 33.57201753 39.4987793 27.78442383 C33.5036152 23.69253487 27.48462226 19.63964631 21.4375 15.625 C16.06194896 12.05183259 10.69706905 8.46500177 5.375 4.8125 C4.33085937 4.09707031 3.28671875 3.38164063 2.2109375 2.64453125 C1.48132813 2.10183594 0.75171875 1.55914063 0 1 C0 0.67 0 0.34 0 0 Z " fill="#F1B937" transform="translate(195,30)"/>
<path d="M0 0 C0 0.66 0 1.32 0 2 C0.60054199 2.25724854 1.20108398 2.51449707 1.81982422 2.77954102 C4.21560092 4.12069306 5.27680019 5.32195977 6.8828125 7.52734375 C7.40568848 8.23213867 7.92856445 8.93693359 8.46728516 9.66308594 C9.01433105 10.41364258 9.56137695 11.16419922 10.125 11.9375 C14.78584984 18.2021257 19.56925183 24.06227599 24.9765625 29.703125 C27.01297476 32.01472811 28.42084798 34.3639676 30 37 C31.42402662 38.63469722 32.88455584 40.23812298 34.375 41.8125 C37.66549217 45.3905109 40.40425549 48.85064198 42.734375 53.11328125 C44.49883889 55.74363946 46.75889171 57.76207058 49 60 C51.16294813 62.51542595 53.23757462 65.09926982 55.3125 67.6875 C55.88572998 68.39793457 56.45895996 69.10836914 57.04956055 69.84033203 C58.70285817 71.89104576 60.35215735 73.94490182 62 76 C62.7734375 76.96292969 63.546875 77.92585938 64.34375 78.91796875 C66.23291747 81.27567974 68.1170523 83.6373204 70 86 C71.41634855 87.77108778 72.83301629 89.54192035 74.25 91.3125 C75.5 92.875 76.75 94.4375 78 96 C78.68707031 96.84949219 79.37414062 97.69898438 80.08203125 98.57421875 C81.61516229 100.51327043 83.04676639 102.45961575 84.4375 104.5 C85.99086831 106.70493313 87.42238419 108.41126882 89.375 110.3125 C96.30898459 117.41157946 100.49391826 123.80234656 100.41015625 133.74609375 C99.73729212 139.08414918 97.44038393 142.93337107 94 147 C89.80541437 150.24127071 85.68723133 150.52983266 80.5234375 150.34375 C73.6239525 149.40388207 69.34618585 145.8418966 65.03125 140.5859375 C64 139 64 139 64 137 C63.01 136.67 62.02 136.34 61 136 C58.95703125 133.56640625 58.95703125 133.56640625 56.8125 130.5625 C56.09707031 129.57378906 55.38164062 128.58507812 54.64453125 127.56640625 C53 125 53 125 53 123 C52.40018311 122.74347656 51.80036621 122.48695313 51.18237305 122.22265625 C48.7752125 120.87406468 47.700506 119.65175462 46.08203125 117.4375 C45.29010376 116.37269409 45.29010376 116.37269409 44.48217773 115.28637695 C43.65568726 114.15462036 43.65568726 114.15462036 42.8125 113 C38.4206322 107.10563484 33.97536128 101.50196281 28.90234375 96.17578125 C26.6571592 93.60788023 24.88734032 90.83996371 23 88 C21.40067777 86.0206408 19.77473635 84.06254082 18.125 82.125 C14.75330444 78.13831012 11.5216378 74.0939604 8.4453125 69.875 C6.26985438 67.05278407 3.85176632 64.45972384 1.41796875 61.859375 C0 60 0 60 -0.51171875 57.828125 C-0.67285156 57.22484375 -0.83398438 56.6215625 -1 56 C-2.485 55.505 -2.485 55.505 -4 55 C-5.65625 53.20703125 -5.65625 53.20703125 -7.5 50.8125 C-8.19738281 49.91660156 -8.89476562 49.02070313 -9.61328125 48.09765625 C-10.79470703 46.56431641 -10.79470703 46.56431641 -12 45 C-13.41233738 43.19251134 -14.82864592 41.38820007 -16.24609375 39.5847168 C-17.18399064 38.39089987 -18.12027617 37.19581466 -19.0546875 35.99926758 C-21.22482327 33.22574178 -23.41927226 30.48318375 -25.6875 27.7890625 C-28.04159434 24.94983385 -30.01055235 22.09469634 -32 19 C-28.00298406 10.70430654 -23.86908111 4.37260726 -15.0625 0.8125 C-9.81577238 -0.57948896 -5.30849553 -1.44777151 0 0 Z " fill="#090909" transform="translate(287,359)"/>
<path d="M0 0 C0.77070328 -0.0033284 1.54140656 -0.0066568 2.33546448 -0.01008606 C3.96883546 -0.01515835 5.60221685 -0.01749429 7.2355957 -0.01733398 C9.73991924 -0.01951905 12.24380146 -0.0376672 14.74804688 -0.05664062 C16.33202974 -0.05957472 17.9160147 -0.06155941 19.5 -0.0625 C20.25212265 -0.06968552 21.0042453 -0.07687103 21.77915955 -0.08427429 C27.08758346 -0.06085404 27.08758346 -0.06085404 29.31640625 2.16796875 C29.57519531 5.02539063 29.57519531 5.02539063 29.58203125 8.63671875 C29.58589844 10.57611328 29.58589844 10.57611328 29.58984375 12.5546875 C29.58355957 13.56668213 29.58355957 13.56668213 29.57714844 14.59912109 C29.56644695 16.66013032 29.57704568 18.72026794 29.58984375 20.78125 C29.58726562 22.07417969 29.5846875 23.36710937 29.58203125 24.69921875 C29.57977539 25.89095703 29.57751953 27.08269531 29.57519531 28.31054688 C29.31640625 31.16796875 29.31640625 31.16796875 27.31640625 33.16796875 C24.75868145 33.35531682 22.31128214 33.42371018 19.75390625 33.3984375 C19.00681396 33.39797928 18.25972168 33.39752106 17.48999023 33.39704895 C15.90965182 33.3940265 14.32931639 33.38614039 12.74902344 33.3737793 C10.32606485 33.35554145 7.90348876 33.35326948 5.48046875 33.35351562 C3.94661127 33.34859967 2.41275639 33.34277101 0.87890625 33.3359375 C0.15179443 33.33482468 -0.57531738 33.33371185 -1.32446289 33.33256531 C-6.4514469 33.28404218 -6.4514469 33.28404218 -8.68359375 32.16796875 C-8.70824879 27.77140702 -8.72643217 23.37488155 -8.73852539 18.97827148 C-8.74356496 17.48151957 -8.75039662 15.98477259 -8.7590332 14.48803711 C-8.77111534 12.34097068 -8.77682566 10.19396913 -8.78125 8.046875 C-8.78648682 6.75338135 -8.79172363 5.4598877 -8.79711914 4.12719727 C-8.57941613 -1.54759458 -4.63531345 0.0068399 0 0 Z " fill="#000000" transform="translate(246.68359375,167.83203125)"/>
<path d="M0 0 C0.70210098 0.00404846 1.40420197 0.00809692 2.12757874 0.01226807 C3.21136559 0.00939789 3.21136559 0.00939789 4.31704712 0.00646973 C5.84609831 0.00510803 7.37516106 0.00880342 8.90419006 0.01715088 C11.24389182 0.02783556 13.58282305 0.01726357 15.92250061 0.00445557 C17.40752835 0.00577747 18.8925556 0.0083405 20.37757874 0.01226807 C21.07765549 0.0082196 21.77773224 0.00417114 22.49902344 0 C26.16271794 0.03531652 27.68405064 0.18793684 30.81898499 2.27789307 C31.1754303 5.13531494 31.1754303 5.13531494 31.14710999 8.74664307 C31.14195374 10.03957275 31.13679749 11.33250244 31.13148499 12.66461182 C31.12117249 13.3392749 31.11085999 14.01393799 31.10023499 14.70904541 C31.06910512 16.76993948 31.05926714 18.83006855 31.05335999 20.89117432 C30.97297118 30.96992068 30.97297118 30.96992068 29.81898499 33.27789307 C24.71034602 33.30254317 19.60174139 33.32072914 14.49305725 33.33282471 C12.75379331 33.33786511 11.01453362 33.34469737 9.27528381 33.35333252 C6.78072562 33.36541098 4.28622325 33.37112415 1.79164124 33.37554932 C1.00934647 33.3807106 0.2270517 33.38587189 -0.57894897 33.39118958 C-2.44668616 33.39138533 -4.31430706 33.33989001 -6.18101501 33.27789307 C-8.61117539 30.84773269 -7.35424056 25.02014176 -7.36656189 21.62359619 C-7.36648132 20.9211377 -7.36640076 20.2186792 -7.36631775 19.49493408 C-7.36850244 17.35272307 -7.38665013 15.21102836 -7.40562439 13.06890869 C-7.4085586 11.71279067 -7.41054321 10.35667019 -7.41148376 9.00054932 C-7.41559265 7.76055176 -7.41970154 6.5205542 -7.42393494 5.24298096 C-6.99842447 0.04918733 -4.67848198 0.04531708 0 0 Z " fill="#000200" transform="translate(247.18101501464844,217.72210693359375)"/>
<path d="M0 0 C0.67434586 -0.00287018 1.34869171 -0.00574036 2.04347229 -0.00869751 C3.46819906 -0.01073673 4.89295392 -0.00521663 6.31762695 0.00732422 C8.49299129 0.02335705 10.6664909 0.00748599 12.84179688 -0.01171875 C14.22786867 -0.0097358 15.61393931 -0.00589105 17 0 C18.25868896 0.00338379 19.51737793 0.00676758 20.81420898 0.01025391 C24.30883861 0.42737433 25.77113713 0.73789975 28.06640625 3.3984375 C28.56811523 6.078125 28.56811523 6.078125 28.5625 9.2734375 C28.56314453 10.42328125 28.56378906 11.573125 28.56445312 12.7578125 C28.54447266 13.95921875 28.52449219 15.160625 28.50390625 16.3984375 C28.51099609 17.59984375 28.51808594 18.80125 28.52539062 20.0390625 C28.46088888 28.89068622 28.46088888 28.89068622 26.66430664 31.203125 C22.03818277 34.66370597 16.29908764 33.66090955 10.74511719 33.69360352 C8.70569633 33.71081689 6.66789742 33.75470585 4.62890625 33.79882812 C2.69917969 33.81139648 2.69917969 33.81139648 0.73046875 33.82421875 C-1.04142822 33.84609253 -1.04142822 33.84609253 -2.84912109 33.8684082 C-5.93359375 33.3984375 -5.93359375 33.3984375 -8.3190918 31.74511719 C-10.36093854 28.77729156 -10.43601937 27.01099541 -10.4296875 23.42578125 C-10.43033203 22.27916016 -10.43097656 21.13253906 -10.43164062 19.95117188 C-10.41166016 18.75814453 -10.39167969 17.56511719 -10.37109375 16.3359375 C-10.38172852 14.5405957 -10.38172852 14.5405957 -10.39257812 12.70898438 C-10.32933562 4.06422019 -10.32933562 4.06422019 -8.83984375 1.55834961 C-5.91930645 -0.2187345 -3.39246247 0.00912829 0 0 Z " fill="#000100" transform="translate(194.93359375,167.6015625)"/>
<path d="M0 0 C0.65073486 -0.00145523 1.30146973 -0.00291046 1.97192383 -0.00440979 C3.34363293 -0.00275458 4.71536132 0.00876479 6.08691406 0.02954102 C8.18114461 0.05850585 10.27284258 0.0501437 12.3671875 0.03710938 C13.70313725 0.04334736 15.03907903 0.05173878 16.375 0.0625 C17.58542969 0.07224854 18.79585937 0.08199707 20.04296875 0.09204102 C23.47738319 0.53334194 24.9205388 0.88172005 27.1875 3.49609375 C27.70507812 6.26757812 27.70507812 6.26757812 27.71875 9.58984375 C27.72648437 11.38228516 27.72648437 11.38228516 27.734375 13.2109375 C27.71890625 14.46003906 27.7034375 15.70914063 27.6875 16.99609375 C27.70296875 18.24519531 27.7184375 19.49429688 27.734375 20.78125 C27.72921875 21.97621094 27.7240625 23.17117187 27.71875 24.40234375 C27.71423828 25.49869141 27.70972656 26.59503906 27.70507812 27.72460938 C27.1875 30.49609375 27.1875 30.49609375 25.58007812 32.35205078 C22.39300199 33.87599351 19.90468065 33.88466393 16.375 33.89453125 C15.72426514 33.89740143 15.07353027 33.90027161 14.40307617 33.90322876 C13.03140387 33.90526431 11.65970221 33.89976998 10.28808594 33.88720703 C8.19399835 33.8711436 6.10184039 33.88707032 4.0078125 33.90625 C2.67187076 33.90426747 1.33593022 33.9004236 0 33.89453125 C-1.81564453 33.88945557 -1.81564453 33.88945557 -3.66796875 33.88427734 C-7.10352402 33.46016765 -8.53773727 33.10011664 -10.8125 30.49609375 C-11.33007812 27.83227539 -11.33007812 27.83227539 -11.34375 24.65625 C-11.34890625 23.51091797 -11.3540625 22.36558594 -11.359375 21.18554688 C-11.34390625 19.98865234 -11.3284375 18.79175781 -11.3125 17.55859375 C-11.32796875 16.36556641 -11.3434375 15.17253906 -11.359375 13.94335938 C-11.35164062 12.22342773 -11.35164062 12.22342773 -11.34375 10.46875 C-11.33923828 9.41953369 -11.33472656 8.37031738 -11.33007812 7.28930664 C-10.11312029 0.72175259 -6.0565523 -0.00927188 0 0 Z " fill="#000600" transform="translate(195.8125,113.50390625)"/>
<path d="M0 0 C1.90942383 -0.0009668 1.90942383 -0.0009668 3.85742188 -0.00195312 C4.51782471 0.00843994 5.17822754 0.01883301 5.85864258 0.02954102 C7.86949509 0.05845841 9.87770142 0.05015324 11.88867188 0.03710938 C23.57553526 0.11395774 23.57553526 0.11395774 27.44140625 3.49609375 C28.05664062 6.26757812 28.05664062 6.26757812 28.03515625 9.58984375 C28.03257812 10.78480469 28.03 11.97976562 28.02734375 13.2109375 C27.98480469 15.08458984 27.98480469 15.08458984 27.94140625 16.99609375 C27.94527344 18.86974609 27.94527344 18.86974609 27.94921875 20.78125 C27.8519013 29.80257749 27.8519013 29.80257749 26.34545898 32.34765625 C22.03421414 34.9480019 16.12135074 34.01265237 11.19018555 33.99707031 C9.01411475 33.99609831 6.8415767 34.03770743 4.66601562 34.08203125 C3.27995525 34.08723895 1.89388265 34.08992643 0.5078125 34.08984375 C-0.75087646 34.09693359 -2.00956543 34.10402344 -3.30639648 34.11132812 C-6.55859375 33.49609375 -6.55859375 33.49609375 -8.96704102 31.30883789 C-10.72400829 28.20375735 -11.07309899 26.43846022 -11.08984375 22.8984375 C-11.095 21.84978516 -11.10015625 20.80113281 -11.10546875 19.72070312 C-11.09 18.63595703 -11.07453125 17.55121094 -11.05859375 16.43359375 C-11.0740625 15.34498047 -11.08953125 14.25636719 -11.10546875 13.13476562 C-11.1003125 12.08740234 -11.09515625 11.04003906 -11.08984375 9.9609375 C-11.08533203 9.00823975 -11.08082031 8.05554199 -11.07617188 7.07397461 C-9.81640391 0.79949824 -5.79701054 -0.00924307 0 0 Z " fill="#000400" transform="translate(197.55859375,217.50390625)"/>
<path d="M0 0 C0.97965981 0.00349709 0.97965981 0.00349709 1.97911072 0.00706482 C3.35510381 0.0167796 4.73105825 0.03851548 6.10668945 0.0715332 C8.21170271 0.12101991 10.31437893 0.13301908 12.41992188 0.13867188 C22.68438851 0.24662359 22.68438851 0.24662359 26.15234375 2.55859375 C27.82526547 7.5773589 27.37885995 12.80409388 27.40234375 18.05859375 C27.42296875 19.21230469 27.44359375 20.36601562 27.46484375 21.5546875 C27.47257812 23.21177734 27.47257812 23.21177734 27.48046875 24.90234375 C27.4944873 26.42118164 27.4944873 26.42118164 27.50878906 27.97070312 C27.15234375 30.55859375 27.15234375 30.55859375 26.06738281 32.38720703 C23.13407665 34.18144505 20.59535813 33.94789726 17.18359375 33.95703125 C16.50687622 33.95990143 15.83015869 33.96277161 15.13293457 33.96572876 C13.70401166 33.96776772 12.27506073 33.96224944 10.84619141 33.94970703 C8.6598465 33.93364886 6.47534996 33.94955909 4.2890625 33.96875 C2.89973551 33.96676754 1.51040966 33.96292379 0.12109375 33.95703125 C-1.14283203 33.95364746 -2.40675781 33.95026367 -3.70898438 33.94677734 C-6.84765625 33.55859375 -6.84765625 33.55859375 -8.72070312 32.15869141 C-11.8941429 27.65290192 -11.11142261 22.57755368 -11.16015625 17.24609375 C-11.18916016 16.20001953 -11.21816406 15.15394531 -11.24804688 14.07617188 C-11.25642578 13.06361328 -11.26480469 12.05105469 -11.2734375 11.0078125 C-11.28802002 10.08315186 -11.30260254 9.15849121 -11.31762695 8.20581055 C-10.10998781 1.40350863 -6.43232506 -0.07112483 0 0 Z " fill="#000300" transform="translate(197.84765625,271.44140625)"/>
<path d="M0 0 C7.6013324 0.60899883 15.1108881 1.52346629 22.6484375 2.671875 C23.73237289 2.83471985 24.81630829 2.9975647 25.93309021 3.16534424 C29.41430173 3.68983895 32.89468951 4.21956192 36.375 4.75 C37.55565033 4.92885742 38.73630066 5.10771484 39.95272827 5.29199219 C57.6746789 7.97789881 75.36555564 10.78471051 93 14 C93 14.33 93 14.66 93 15 C91.18757948 15.02687279 89.37504767 15.04633715 87.5625 15.0625 C86.55316406 15.07410156 85.54382813 15.08570313 84.50390625 15.09765625 C82 15 82 15 81 14 C78.81707226 13.76518307 76.62796826 13.58636677 74.4375 13.4375 C73.23996094 13.35371094 72.04242188 13.26992188 70.80859375 13.18359375 C69.88175781 13.12300781 68.95492187 13.06242187 68 13 C68 12.34 68 11.68 68 11 C66.62714844 11.01740234 66.62714844 11.01740234 65.2265625 11.03515625 C63.44378906 11.04869141 63.44378906 11.04869141 61.625 11.0625 C60.44164062 11.07410156 59.25828125 11.08570313 58.0390625 11.09765625 C55 11 55 11 53 10 C50.43154781 9.96962979 47.879238 10.06688815 45.3125 10.16015625 C43 10 43 10 41 8 C38.10776497 7.53603307 38.10776497 7.53603307 34.875 7.375 C33.23144531 7.26285156 33.23144531 7.26285156 31.5546875 7.1484375 C30.71164063 7.09945312 29.86859375 7.05046875 29 7 C29 7.99 29 8.98 29 10 C28.34 10 27.68 10 27 10 C27 10.66 27 11.32 27 12 C26.01 12.495 26.01 12.495 25 13 C25.66 13.33 26.32 13.66 27 14 C27.625 16.5625 27.625 16.5625 28 19 C23.77258705 17.52314039 20.46021072 15.39388846 16.8125 12.8125 C16.25022705 12.41611328 15.6879541 12.01972656 15.10864258 11.61132812 C13.96082806 10.80206125 12.81425359 9.9910326 11.66894531 9.17822266 C8.37965116 6.85608492 5.04943125 4.59197822 1.73046875 2.3125 C1.15941406 1.879375 0.58835938 1.44625 0 1 C0 0.67 0 0.34 0 0 Z " fill="#EDB73B" transform="translate(195,30)"/>
<path d="M0 0 C0.99 0 1.98 0 3 0 C3 42.24 3 84.48 3 128 C2.34 128.33 1.68 128.66 1 129 C0.67 86.43 0.34 43.86 0 0 Z " fill="#463210" transform="translate(445,84)"/>
<path d="M0 0 C24.10638298 -0.19148936 24.10638298 -0.19148936 33 1 C33 1.33 33 1.66 33 2 C22.77 2 12.54 2 2 2 C2 4.97 2 7.94 2 11 C3.65 11.33 5.3 11.66 7 12 C7.33 13.32 7.66 14.64 8 16 C8.66 16 9.32 16 10 16 C10.00626677 20.23052057 9.94665462 24.45763804 9.875 28.6875 C9.87757813 29.88568359 9.88015625 31.08386719 9.8828125 32.31835938 C9.69032725 40.95613519 9.69032725 40.95613519 7.71191406 43.94775391 C5.1418274 46.20075196 3.42414944 47 0 47 C0 52.61 0 58.22 0 64 C2.31 64.33 4.62 64.66 7 65 C11.22451304 70.08998123 10.33795344 76.60996442 10.1875 82.875 C10.17396484 83.94492188 10.16042969 85.01484375 10.14648438 86.1171875 C10.11128624 88.74531511 10.06204693 91.37239194 10 94 C9.34 94 8.68 94 8 94 C7.97494385 93.32420898 7.9498877 92.64841797 7.92407227 91.95214844 C7.80789258 88.8845832 7.68526563 85.81730842 7.5625 82.75 C7.52318359 81.68652344 7.48386719 80.62304688 7.44335938 79.52734375 C7.40146484 78.50253906 7.35957031 77.47773438 7.31640625 76.421875 C7.27974854 75.47924805 7.24309082 74.53662109 7.20532227 73.56542969 C7.02060772 71.25748623 6.64138388 69.21859476 6 67 C2.04 66.505 2.04 66.505 -2 66 C-2.02710123 63.4374282 -2.04688771 60.87514635 -2.0625 58.3125 C-2.07087891 57.59126953 -2.07925781 56.87003906 -2.08789062 56.12695312 C-2.10543632 52.28444618 -1.93524221 48.73360474 -1 45 C-0.05125 44.731875 0.8975 44.46375 1.875 44.1875 C5.25267273 43.25013412 5.25267273 43.25013412 7 40 C7.46189533 36.20275459 7.37032435 32.38484551 7.375 28.5625 C7.39949219 27.51255859 7.42398438 26.46261719 7.44921875 25.38085938 C7.45308594 24.36958984 7.45695313 23.35832031 7.4609375 22.31640625 C7.46915527 21.39287354 7.47737305 20.46934082 7.48583984 19.51782227 C6.8512246 16.22898455 5.58113092 15.06881643 3 13 C2.01 12.67 1.02 12.34 0 12 C0 8.04 0 4.08 0 0 Z " fill="#238E23" transform="translate(169,102)"/>
<path d="M0 0 C-1.69167132 1.12778088 -3.40026377 2.23346077 -5.15649414 3.2578125 C-7.25244065 4.89656202 -7.25244065 4.89656202 -7.50170898 7.6796875 C-7.49985596 8.73414063 -7.49800293 9.78859375 -7.49609375 10.875 C-7.49673828 12.02484375 -7.49738281 13.1746875 -7.49804688 14.359375 C-7.47806641 15.56078125 -7.45808594 16.7621875 -7.4375 18 C-7.44458984 19.20140625 -7.45167969 20.4028125 -7.45898438 21.640625 C-7.70278224 27.48380538 -7.70278224 27.48380538 -5.87890625 32.84667969 C-3.0751303 34.56770848 -0.77187109 34.3541449 2.49609375 34.328125 C3.77677734 34.32296875 5.05746094 34.3178125 6.37695312 34.3125 C7.043479 34.3021875 7.71000488 34.291875 8.39672852 34.28125 C10.42678311 34.25016411 12.45605932 34.24028339 14.48632812 34.234375 C21.83108098 34.32793122 21.83108098 34.32793122 29 33 C29.09895097 29.06745992 29.1715042 25.13540254 29.21972656 21.2019043 C29.24971281 19.20660986 29.30053786 17.21166418 29.3515625 15.21679688 C29.36445313 13.96318359 29.37734375 12.70957031 29.390625 11.41796875 C29.41157227 10.26063232 29.43251953 9.1032959 29.45410156 7.91088867 C29.27885502 4.91313134 29.27885502 4.91313134 27.13671875 3.13085938 C24.58915435 1.78255975 22.61804841 1.5011874 19.75 1.3125 C18.41195312 1.21388672 18.41195312 1.21388672 17.046875 1.11328125 C16.03367188 1.05720703 16.03367188 1.05720703 15 1 C15 0.67 15 0.34 15 0 C16.74965358 -0.05429959 18.49979787 -0.09292823 20.25 -0.125 C21.22453125 -0.14820313 22.1990625 -0.17140625 23.203125 -0.1953125 C26.10258263 0.00716359 27.6344417 0.33573554 30 2 C31.76999781 4.90864373 32.2556623 7.10132801 32.265625 10.484375 C32.26949219 11.76441406 32.26949219 11.76441406 32.2734375 13.0703125 C32.26570313 13.95460937 32.25796875 14.83890625 32.25 15.75 C32.26160156 17.05324219 32.26160156 17.05324219 32.2734375 18.3828125 C32.23650427 30.68157842 32.23650427 30.68157842 28.85791016 35.69458008 C26.01211615 37.69411498 23.54318787 37.40677877 20.1015625 37.43359375 C19.42958832 37.4388356 18.75761414 37.44407745 18.0652771 37.44947815 C16.64476908 37.45589521 15.2242079 37.45456533 13.80371094 37.44604492 C11.63900049 37.43755491 9.47694831 37.46626024 7.3125 37.49804688 C5.92968829 37.49965966 4.54687193 37.49907987 3.1640625 37.49609375 C1.91061035 37.49794678 0.6571582 37.4997998 -0.63427734 37.50170898 C-4.66897169 36.90028022 -6.3110185 36.06123924 -9 33 C-9.63110352 29.94726562 -9.63110352 29.94726562 -9.62890625 26.40625 C-9.63083984 25.12878906 -9.63277344 23.85132813 -9.63476562 22.53515625 C-9.62227783 21.87273926 -9.60979004 21.21032227 -9.59692383 20.52783203 C-9.562592 18.50541971 -9.57626989 16.48737637 -9.59570312 14.46484375 C-9.52158031 4.67074969 -9.52158031 4.67074969 -7.13647461 1.60351562 C-4.55234445 -0.33598465 -3.1579788 -0.35088653 0 0 Z " fill="#218D22" transform="translate(193,166)"/>
<path d="M0 0 C0.66 0.33 1.32 0.66 2 1 C2.11633933 5.22893468 2.18729952 9.45745674 2.25 13.6875 C2.30027344 15.48477539 2.30027344 15.48477539 2.3515625 17.31835938 C2.36445313 18.47529297 2.37734375 19.63222656 2.390625 20.82421875 C2.41157227 21.88729248 2.43251953 22.95036621 2.45410156 24.0456543 C1.86789941 27.85943508 0.88179484 29.43837222 -2 32 C-5.23632813 32.58349609 -5.23632813 32.58349609 -9.03125 32.5234375 C-9.70418091 32.51873444 -10.37711182 32.51403137 -11.07043457 32.50918579 C-13.21467799 32.48789503 -15.35642218 32.43134657 -17.5 32.375 C-18.94138279 32.35848449 -20.38279219 32.34413858 -21.82421875 32.33203125 C-34.04424542 32.17562313 -34.04424542 32.17562313 -37 31 C-39.32891212 27.50663182 -39.23551143 26.13992135 -39.1953125 22.01953125 C-39.18886719 20.85615234 -39.18242187 19.69277344 -39.17578125 18.49414062 C-39.15902344 17.27919922 -39.14226562 16.06425781 -39.125 14.8125 C-39.11597656 13.58595703 -39.10695312 12.35941406 -39.09765625 11.09570312 C-39.07406017 8.06360705 -39.04113841 5.03190062 -39 2 C-38.67 2 -38.34 2 -38 2 C-37.97812622 3.12027588 -37.97812622 3.12027588 -37.95581055 4.26318359 C-37.88152054 7.63432252 -37.78479801 11.00445005 -37.6875 14.375 C-37.66494141 15.550625 -37.64238281 16.72625 -37.61914062 17.9375 C-37.58369141 19.05898437 -37.54824219 20.18046875 -37.51171875 21.3359375 C-37.48553467 22.37282715 -37.45935059 23.4097168 -37.43237305 24.47802734 C-37.28968994 25.31027832 -37.14700684 26.1425293 -37 27 C-33.3570952 29.4286032 -31.58696159 29.25761901 -27.25 29.265625 C-26.26821777 29.26849518 -26.26821777 29.26849518 -25.26660156 29.27142334 C-23.88476171 29.27278245 -22.50290897 29.26910513 -21.12109375 29.26074219 C-19.0075204 29.25003809 -16.89479695 29.26064601 -14.78125 29.2734375 C-13.43749813 29.27211586 -12.09374678 29.26955336 -10.75 29.265625 C-8.91695312 29.26224121 -8.91695312 29.26224121 -7.046875 29.25878906 C-3.82527757 29.23184091 -3.82527757 29.23184091 -1 27 C-0.48895078 24.19189856 -0.48895078 24.19189856 -0.48828125 20.8984375 C-0.45283203 19.68671875 -0.41738281 18.475 -0.38085938 17.2265625 C-0.35830078 15.95554688 -0.33574219 14.68453125 -0.3125 13.375 C-0.27833984 12.09625 -0.24417969 10.8175 -0.20898438 9.5 C-0.12627521 6.33342068 -0.05719915 3.16712636 0 0 Z " fill="#258C26" transform="translate(223,117)"/>
<path d="M0 0 C0.07001185 16.65456485 0.12294967 33.30908213 0.15543652 49.96375847 C0.17092016 57.69642932 0.1920381 65.42900885 0.22631836 73.16162109 C0.2561751 79.89961625 0.27556411 86.63754529 0.28226548 93.37560475 C0.28618412 96.94497365 0.29542409 100.51415337 0.31719017 104.08346176 C0.3412641 108.06332759 0.3419724 112.04300659 0.34057617 116.02294922 C0.35675491 117.80750519 0.35675491 117.80750519 0.3732605 119.62811279 C0.36707451 121.24775436 0.36707451 121.24775436 0.36076355 122.90011597 C0.36352893 123.8421884 0.36629431 124.78426083 0.36914349 125.75488091 C0.24732614 126.49577021 0.12550879 127.23665951 0 128 C-1.485 128.99 -1.485 128.99 -3 130 C-3 128.35 -3 126.7 -3 125 C-2.34 125 -1.68 125 -1 125 C-1.33 84.74 -1.66 44.48 -2 3 C-3.65 4.32 -5.3 5.64 -7 7 C-7.66 6.67 -8.32 6.34 -9 6 C-7.8803014 4.99406757 -6.7540588 3.9954151 -5.625 3 C-4.68527344 2.1646875 -4.68527344 2.1646875 -3.7265625 1.3125 C-2 0 -2 0 0 0 Z " fill="#E1B64C" transform="translate(446,86)"/>
<path d="M0 0 C1.20849609 0.00322266 2.41699219 0.00644531 3.66210938 0.00976562 C4.92474609 0.01814453 6.18738281 0.02652344 7.48828125 0.03515625 C9.39963867 0.04192383 9.39963867 0.04192383 11.34960938 0.04882812 C14.50004689 0.06062752 17.65039074 0.07709028 20.80078125 0.09765625 C17.53365281 3.03855875 15.36295621 3.47347318 11.01171875 3.50390625 C9.35269531 3.53677734 9.35269531 3.53677734 7.66015625 3.5703125 C5.32942756 3.58860297 2.99869839 3.60683173 0.66796875 3.625 C-0.9871875 3.65787109 -0.9871875 3.65787109 -2.67578125 3.69140625 C-4.19292725 3.70204102 -4.19292725 3.70204102 -5.74072266 3.71289062 C-6.55202637 3.83986328 -7.36333008 3.96683594 -8.19921875 4.09765625 C-10.54435676 7.0433417 -10.54435676 7.0433417 -10.32421875 11.03515625 C-10.5234375 13.15625 -10.5234375 13.15625 -11.19921875 15.09765625 C-14.10793372 17.41563882 -17.43649807 19.09765625 -21.19921875 19.09765625 C-21.23660156 18.19402344 -21.27398437 17.29039062 -21.3125 16.359375 C-21.37824219 15.17988281 -21.44398438 14.00039063 -21.51171875 12.78515625 C-21.56972656 11.61339844 -21.62773437 10.44164062 -21.6875 9.234375 C-22.21526643 5.99928765 -22.62302599 5.01080744 -25.19921875 3.09765625 C-22.81357798 3.67350057 -20.53239091 4.3199322 -18.19921875 5.09765625 C-18.52473958 7.08333333 -18.85026042 9.06901042 -19.17578125 11.0546875 C-19.39499723 13.41521449 -19.39499723 13.41521449 -17.19921875 16.09765625 C-17.19921875 15.43765625 -17.19921875 14.77765625 -17.19921875 14.09765625 C-16.53921875 13.76765625 -15.87921875 13.43765625 -15.19921875 13.09765625 C-14.84509531 11.76969334 -14.51400321 10.43549018 -14.19921875 9.09765625 C-13.53921875 8.10765625 -12.87921875 7.11765625 -12.19921875 6.09765625 C-11.72484375 5.23140625 -11.25046875 4.36515625 -10.76171875 3.47265625 C-8.05001589 -0.6491321 -4.55858616 -0.02140181 0 0 Z " fill="#218E22" transform="translate(199.19921875,322.90234375)"/>
<path d="M0 0 C5.61 0 11.22 0 17 0 C15.03551482 1.96448518 13.82039997 2.65228059 11.32421875 3.734375 C10.58429688 4.05865479 9.844375 4.38293457 9.08203125 4.71704102 C7.89673828 5.22835571 7.89673828 5.22835571 6.6875 5.75 C5.05553812 6.46120454 3.42403089 7.1734532 1.79296875 7.88671875 C0.9839209 8.24040527 0.17487305 8.5940918 -0.65869141 8.95849609 C-5.01623691 10.89689955 -9.30468113 12.98144221 -13.59375 15.06640625 C-14.3878125 15.37449219 -15.181875 15.68257813 -16 16 C-16.66 15.67 -17.32 15.34 -18 15 C-17.67 13.35 -17.34 11.7 -17 10 C-16.29875 10.226875 -15.5975 10.45375 -14.875 10.6875 C-11.09217768 11.09867634 -9.30273776 9.78898295 -6 8 C-5.0925 7.855625 -4.185 7.71125 -3.25 7.5625 C-0.85263444 7.21772073 -0.85263444 7.21772073 0.375 5.125 C1.26545576 2.84459313 1.26545576 2.84459313 0 0 Z " fill="#218B23" transform="translate(242,305)"/>
<path d="M0 0 C0.33 0 0.66 0 1 0 C1 9.57 1 19.14 1 29 C1.99 28.67 2.98 28.34 4 28 C4.99 28.33 5.98 28.66 7 29 C11.14199138 29.23393307 15.28960269 29.18517364 19.4375 29.1875 C21.15549805 29.20586914 21.15549805 29.20586914 22.90820312 29.22460938 C24.00970703 29.22654297 25.11121094 29.22847656 26.24609375 29.23046875 C27.25341553 29.23457764 28.2607373 29.23868652 29.29858398 29.24291992 C32.3380324 29.13540868 32.3380324 29.13540868 36 27 C36.33 18.09 36.66 9.18 37 0 C37.33 0 37.66 0 38 0 C38.02469575 4.09341499 38.04285793 8.18680121 38.05493164 12.28027344 C38.0599643 13.67318477 38.06679098 15.0660908 38.07543945 16.45898438 C38.08755152 18.45961246 38.09270412 20.46027888 38.09765625 22.4609375 C38.10289307 23.66540527 38.10812988 24.86987305 38.11352539 26.11083984 C38 29 38 29 37 31 C31.89136104 31.0246501 26.78275641 31.04283607 21.67407227 31.05493164 C19.93480832 31.05997204 18.19554864 31.0668043 16.45629883 31.07543945 C13.96174063 31.08751792 11.46723827 31.09323108 8.97265625 31.09765625 C8.19036148 31.10281754 7.40806671 31.10797882 6.60206604 31.11329651 C4.73432886 31.11349226 2.86670796 31.06199694 1 31 C0 30 0 30 -0.11352539 27.13256836 C-0.10828857 25.88096924 -0.10305176 24.62937012 -0.09765625 23.33984375 C-0.0962413 22.67537735 -0.09482635 22.01091095 -0.09336853 21.3263092 C-0.08775518 19.19666101 -0.07520054 17.06711661 -0.0625 14.9375 C-0.05748671 13.49674631 -0.05292351 12.05599097 -0.04882812 10.61523438 C-0.03778145 7.07678898 -0.02050792 3.53840461 0 0 Z " fill="#001F00" transform="translate(240,220)"/>
<path d="M0 0 C7.97822713 0.55403439 15.79193151 1.49316797 23.671875 2.84765625 C25.24452118 3.11188637 25.24452118 3.11188637 26.84893799 3.38145447 C30.15009249 3.93717994 33.45004318 4.49971105 36.75 5.0625 C39.00773593 5.443813 41.26554786 5.82467636 43.5234375 6.20507812 C49.01651282 7.1315307 54.50862039 8.06355166 60 9 C60 9.33 60 9.66 60 10 C58.18757948 10.02687279 56.37504767 10.04633715 54.5625 10.0625 C53.55316406 10.07410156 52.54382813 10.08570313 51.50390625 10.09765625 C49 10 49 10 48 9 C45.81707226 8.76518307 43.62796826 8.58636677 41.4375 8.4375 C40.23996094 8.35371094 39.04242188 8.26992188 37.80859375 8.18359375 C36.88175781 8.12300781 35.95492187 8.06242187 35 8 C35 7.34 35 6.68 35 6 C33.62714844 6.01740234 33.62714844 6.01740234 32.2265625 6.03515625 C30.44378906 6.04869141 30.44378906 6.04869141 28.625 6.0625 C27.44164062 6.07410156 26.25828125 6.08570313 25.0390625 6.09765625 C22 6 22 6 20 5 C17.43154781 4.96962979 14.879238 5.06688815 12.3125 5.16015625 C10 5 10 5 8 3 C5.34462628 2.43479997 2.70855287 2.26211802 0 2 C0 1.34 0 0.68 0 0 Z " fill="#DDB049" transform="translate(228,35)"/>
<path d="M0 0 C5.43614072 2.7832093 9.93265026 5.40783094 14 10 C10.58978257 9.21302675 7.31114834 8.12880057 4 7 C5.52555966 11.81122847 5.52555966 11.81122847 9 15 C9 15.66 9 16.32 9 17 C9.99 17.33 10.98 17.66 12 18 C11.67 18.66 11.34 19.32 11 20 C8.39266788 18.40079629 5.78914357 16.79591077 3.1875 15.1875 C2.44951172 14.73568359 1.71152344 14.28386719 0.95117188 13.81835938 C0.23896484 13.37685547 -0.47324219 12.93535156 -1.20703125 12.48046875 C-1.8616333 12.07723389 -2.51623535 11.67399902 -3.19067383 11.25854492 C-5 10 -5 10 -8 7 C-4.7 7.33 -1.4 7.66 2 8 C2 6.35 2 4.7 2 3 C1.34 2.67 0.68 2.34 0 2 C0 1.34 0 0.68 0 0 Z " fill="#D9AE3D" transform="translate(274,100)"/>
<path d="M0 0 C1.32 0.66 2.64 1.32 4 2 C4.495 3.485 4.495 3.485 5 5 C3.68 4.67 2.36 4.34 1 4 C0.9175 5.093125 0.835 6.18625 0.75 7.3125 C0 11 0 11 -1.58496094 12.7121582 C-4.95128714 14.50728262 -7.58823271 14.33823532 -11.390625 14.29296875 C-12.09523865 14.28872391 -12.79985229 14.28447906 -13.52581787 14.28010559 C-15.76760712 14.26336538 -18.00848431 14.22572404 -20.25 14.1875 C-21.77342448 14.17244704 -23.29686311 14.1587597 -24.8203125 14.14648438 C-28.54716941 14.11347791 -32.27349563 14.06172854 -36 14 C-36.33 13.01 -36.66 12.02 -37 11 C-25.45 11 -13.9 11 -2 11 C-1.34 7.37 -0.68 3.74 0 0 Z " fill="#288329" transform="translate(276,135)"/>
<path d="M0 0 C3.465 1.98 3.465 1.98 7 4 C6.01 4.33 5.02 4.66 4 5 C3.01 4.34 2.02 3.68 1 3 C1.01160156 4.20398437 1.02320313 5.40796875 1.03515625 6.6484375 C1.04453434 8.22395679 1.05363452 9.79947775 1.0625 11.375 C1.07087891 12.1690625 1.07925781 12.963125 1.08789062 13.78125 C1.11328125 19.7734375 1.11328125 19.7734375 0 22 C-0.15378852 23.95774069 -0.24971463 25.92017352 -0.31640625 27.8828125 C-0.35830078 29.04941406 -0.40019531 30.21601562 -0.44335938 31.41796875 C-0.48267578 32.64128906 -0.52199219 33.86460938 -0.5625 35.125 C-0.60568359 36.35605469 -0.64886719 37.58710937 -0.69335938 38.85546875 C-0.79968704 41.90352853 -0.90171781 44.9516719 -1 48 C0.216875 47.979375 1.43375 47.95875 2.6875 47.9375 C5.93021395 47.9375 8.84068405 48.21017101 12 49 C13.1446875 49.2784375 13.1446875 49.2784375 14.3125 49.5625 C14.869375 49.706875 15.42625 49.85125 16 50 C12.18483536 51.30062431 8.72438237 50.89369853 4.75 50.5625 C3.48671875 50.46066406 2.2234375 50.35882813 0.921875 50.25390625 C-0.04234375 50.17011719 -1.0065625 50.08632812 -2 50 C-2.02508834 45.27181364 -2.04303969 40.54366769 -2.05493164 35.81542969 C-2.0598995 34.21353478 -2.06667608 32.61164426 -2.07543945 31.00976562 C-2.18477688 10.48005617 -2.18477688 10.48005617 -1 1 C-0.67 0.67 -0.34 0.34 0 0 Z " fill="#D3A846" transform="translate(178,35)"/>
<path d="M0 0 C0.68383255 0.00424484 1.3676651 0.00848969 2.07221985 0.01286316 C4.25297686 0.02963522 6.43280434 0.06728218 8.61328125 0.10546875 C10.0930856 0.12051761 11.57290445 0.13420567 13.05273438 0.14648438 C16.67738461 0.17953306 20.30149219 0.23130429 23.92578125 0.29296875 C23.92578125 0.62296875 23.92578125 0.95296875 23.92578125 1.29296875 C22.73033691 1.31484253 22.73033691 1.31484253 21.51074219 1.3371582 C17.89860001 1.4116435 14.28738151 1.50830387 10.67578125 1.60546875 C8.79439453 1.63930664 8.79439453 1.63930664 6.875 1.67382812 C5.66972656 1.70927734 4.46445313 1.74472656 3.22265625 1.78125 C1.55734863 1.82052612 1.55734863 1.82052612 -0.14160156 1.8605957 C-3.39479508 2.34023321 -4.82108688 2.91256021 -7.07421875 5.29296875 C-7.69412541 7.31823073 -7.69412541 7.31823073 -7.6484375 9.56640625 C-7.67615234 10.39140625 -7.70386719 11.21640625 -7.73242188 12.06640625 C-7.74208984 12.92492187 -7.75175781 13.7834375 -7.76171875 14.66796875 C-7.80410363 16.36336395 -7.84958767 18.05868501 -7.8984375 19.75390625 C-7.9195459 20.5437793 -7.9406543 21.33365234 -7.96240234 22.14746094 C-8.09015158 24.59868422 -8.47210419 26.91388197 -9.07421875 29.29296875 C-9.40421875 29.29296875 -9.73421875 29.29296875 -10.07421875 29.29296875 C-10.16113949 25.02226317 -10.2145839 20.75178417 -10.26171875 16.48046875 C-10.28685547 15.26552734 -10.31199219 14.05058594 -10.33789062 12.79882812 C-10.34755859 11.63544922 -10.35722656 10.47207031 -10.3671875 9.2734375 C-10.38289795 8.19989014 -10.3986084 7.12634277 -10.41479492 6.02026367 C-10.07421875 3.29296875 -10.07421875 3.29296875 -8.99804688 1.4375 C-6.02130398 -0.33343537 -3.43370549 -0.04204537 0 0 Z " fill="#002400" transform="translate(195.07421875,167.70703125)"/>
<path d="M0 0 C1.98 0.33 3.96 0.66 6 1 C6.04937279 5.66307014 6.08570627 10.32598873 6.10986328 14.98925781 C6.11993188 16.57619883 6.13358767 18.16312125 6.15087891 19.75 C6.17509001 22.02869247 6.18647422 24.30714006 6.1953125 26.5859375 C6.20563507 27.29744965 6.21595764 28.00896179 6.22659302 28.74203491 C6.22699422 30.49631665 6.12202209 32.24996709 6 34 C4 36 4 36 0.37646484 36.22705078 C-1.17874689 36.22673357 -2.73398051 36.21540299 -4.2890625 36.1953125 C-5.51669815 36.19106766 -5.51669815 36.19106766 -6.76913452 36.18673706 C-9.38790393 36.17552532 -12.00633364 36.15041929 -14.625 36.125 C-16.39843257 36.11497147 -18.17187049 36.1058454 -19.9453125 36.09765625 C-24.29700626 36.07558278 -28.6484455 36.04104644 -33 36 C-33 35.34 -33 34.68 -33 34 C-31.91468994 34.00523682 -30.82937988 34.01047363 -29.71118164 34.01586914 C-25.69882018 34.03391836 -21.68646233 34.04543171 -17.67407227 34.05493164 C-15.93480832 34.05997204 -14.19554864 34.0668043 -12.45629883 34.07543945 C-9.96174063 34.08751792 -7.46723827 34.09323108 -4.97265625 34.09765625 C-3.7992141 34.10539818 -3.7992141 34.10539818 -2.60206604 34.11329651 C-0.73432886 34.11349226 1.13329204 34.06199694 3 34 C5.61664071 31.38335929 4.27440137 24.30321027 4.29516602 20.75415039 C4.31234603 18.70585688 4.35620989 16.65919178 4.40039062 14.61132812 C4.41295898 12.67483398 4.41295898 12.67483398 4.42578125 10.69921875 C4.44036377 9.51158936 4.45494629 8.32395996 4.4699707 7.1003418 C3.9134322 3.42892233 2.84975313 2.28353966 0 0 Z " fill="#319731" transform="translate(271,166)"/>
<path d="M0 0 C-1.69167132 1.12778088 -3.40026377 2.23346077 -5.15649414 3.2578125 C-7.25244065 4.89656202 -7.25244065 4.89656202 -7.50170898 7.6796875 C-7.49985596 8.73414063 -7.49800293 9.78859375 -7.49609375 10.875 C-7.49673828 12.02484375 -7.49738281 13.1746875 -7.49804688 14.359375 C-7.47806641 15.56078125 -7.45808594 16.7621875 -7.4375 18 C-7.44458984 19.20140625 -7.45167969 20.4028125 -7.45898438 21.640625 C-7.6996908 27.47141659 -7.6996908 27.47141659 -5.90136719 32.83520508 C-3.01681052 34.60231087 -0.50339398 34.44085667 2.85546875 34.51171875 C3.51710526 34.52966995 4.17874176 34.54762115 4.86042786 34.56611633 C6.96938747 34.62020898 9.07812099 34.65410931 11.1875 34.6875 C12.61917208 34.72067427 14.05081433 34.75516405 15.48242188 34.79101562 C18.9880639 34.87593257 22.49378473 34.94274921 26 35 C26 35.33 26 35.66 26 36 C21.65840162 36.07429025 17.3171423 36.12866741 12.97509766 36.16479492 C11.49879509 36.17985923 10.02253712 36.20031482 8.54638672 36.22631836 C6.42143742 36.26280739 4.29708099 36.27974933 2.171875 36.29296875 C0.2552002 36.31653442 0.2552002 36.31653442 -1.70019531 36.34057617 C-5.25859922 35.97330971 -6.70167812 35.73731127 -9 33 C-9.51757812 30.06079102 -9.51757812 30.06079102 -9.53125 26.50390625 C-9.53640625 25.22322266 -9.5415625 23.94253906 -9.546875 22.62304688 C-9.53430664 21.62325806 -9.53430664 21.62325806 -9.52148438 20.60327148 C-9.50010195 18.57218442 -9.52126308 16.54464779 -9.546875 14.51367188 C-9.54171875 13.23169922 -9.5365625 11.94972656 -9.53125 10.62890625 C-9.52673828 9.45400635 -9.52222656 8.27910645 -9.51757812 7.06860352 C-8.56560496 1.42457014 -5.5606001 -0.61784446 0 0 Z " fill="#2D932E" transform="translate(193,166)"/>
<path d="M0 0 C1.32 0.66 2.64 1.32 4 2 C4.08692074 6.27070558 4.14036515 10.54118458 4.1875 14.8125 C4.21263672 16.02744141 4.23777344 17.24238281 4.26367188 18.49414062 C4.27333984 19.65751953 4.28300781 20.82089844 4.29296875 22.01953125 C4.3086792 23.09307861 4.32438965 24.16662598 4.34057617 25.27270508 C4 28 4 28 2.60668945 29.8112793 C-0.80760498 32.3373695 -3.33337569 32.11594184 -7.5390625 32.09765625 C-8.84101563 32.09443359 -10.14296875 32.09121094 -11.484375 32.08789062 C-12.86458399 32.07953466 -14.24479232 32.07106971 -15.625 32.0625 C-17.01301926 32.05748501 -18.40104022 32.0529221 -19.7890625 32.04882812 C-23.19275132 32.03700976 -26.59635439 32.02053434 -30 32 C-30 31.67 -30 31.34 -30 31 C-15.15 30.505 -15.15 30.505 0 30 C1.47377907 25.57866279 2.2525973 23.17987279 2.4140625 18.8203125 C2.45273438 17.8921875 2.49140625 16.9640625 2.53125 16.0078125 C2.5621875 15.05648437 2.593125 14.10515625 2.625 13.125 C2.66367188 12.15046875 2.70234375 11.1759375 2.7421875 10.171875 C2.83593033 7.7814328 2.9216383 5.39098756 3 3 C2.01 3 1.02 3 0 3 C0 2.01 0 1.02 0 0 Z " fill="#001F00" transform="translate(219,169)"/>
<path d="M0 0 C1.47583955 0.0001591 2.95168467 0.00585225 4.42749023 0.01586914 C5.20293686 0.01728409 5.97838348 0.01869904 6.77732849 0.02015686 C9.26361893 0.02577194 11.74982059 0.03832693 14.23608398 0.05102539 C15.91772331 0.05603845 17.59936405 0.06060169 19.28100586 0.06469727 C23.41189965 0.07574626 27.54272674 0.09302094 31.67358398 0.11352539 C32.16858398 1.10352539 32.16858398 1.10352539 32.67358398 2.11352539 C31.68438965 2.10305176 30.69519531 2.09257812 29.67602539 2.08178711 C26.01216235 2.0456352 22.34831512 2.02264257 18.68432617 2.00366211 C17.09738516 1.99359351 15.51046274 1.97993772 13.92358398 1.96264648 C11.64489151 1.93843538 9.36644393 1.92705117 7.08764648 1.91821289 C6.37613434 1.90789032 5.66462219 1.89756775 4.93154907 1.88693237 C3.17726733 1.88653117 1.4236169 1.9915033 -0.32641602 2.11352539 C-2.61903598 3.9744226 -2.61903598 3.9744226 -2.5534668 6.91088867 C-2.53775635 8.65474854 -2.53775635 8.65474854 -2.52172852 10.43383789 C-2.5152832 11.69067383 -2.50883789 12.94750977 -2.50219727 14.24243164 C-2.48543945 15.56114258 -2.46868164 16.87985352 -2.45141602 18.23852539 C-2.44138584 19.5783626 -2.43226005 20.91820691 -2.42407227 22.25805664 C-2.40043677 25.54339112 -2.36748836 28.82837004 -2.32641602 32.11352539 C-2.98641602 32.11352539 -3.64641602 32.11352539 -4.32641602 32.11352539 C-4.35107105 27.71696366 -4.36925444 23.32043819 -4.38134766 18.92382812 C-4.38638722 17.42707621 -4.39321889 15.93032923 -4.40185547 14.43359375 C-4.4139376 12.28652732 -4.41964793 10.13952577 -4.42407227 7.99243164 C-4.42930908 6.69893799 -4.4345459 5.40544434 -4.43994141 4.07275391 C-4.27961334 -0.10646448 -4.24326533 0.14481603 0 0 Z " fill="#001800" transform="translate(242.326416015625,167.886474609375)"/>
<path d="M0 0 C3 1 3 1 4 3 C4.24158337 6.57787006 4.18520185 10.16488363 4.1875 13.75 C4.19974609 14.74 4.21199219 15.73 4.22460938 16.75 C4.24415505 26.49677856 4.24415505 26.49677856 2 31 C-1.42232972 32.14077657 -4.08673217 32.09815117 -7.6875 32.0625 C-9.45673828 32.04896484 -9.45673828 32.04896484 -11.26171875 32.03515625 C-12.16535156 32.02355469 -13.06898438 32.01195312 -14 32 C-14 31.67 -14 31.34 -14 31 C-9.38 30.67 -4.76 30.34 0 30 C1.02628246 26.92115261 1.12906515 24.7873637 1.1328125 21.5625 C1.13410156 20.50289063 1.13539063 19.44328125 1.13671875 18.3515625 C1.13091797 16.69253906 1.13091797 16.69253906 1.125 15 C1.12886719 13.89398438 1.13273438 12.78796875 1.13671875 11.6484375 C1.13542969 10.58882813 1.13414062 9.52921875 1.1328125 8.4375 C1.13168457 7.46683594 1.13055664 6.49617188 1.12939453 5.49609375 C1.10444752 2.86885746 1.10444752 2.86885746 0 0 Z " fill="#2C9B2D" transform="translate(177,274)"/>
<path d="M0 0 C4.94790177 -0.0493651 9.89566083 -0.08570269 14.84375 -0.10986328 C16.52769466 -0.11993317 18.21162179 -0.13358988 19.89550781 -0.15087891 C22.31319501 -0.17508426 24.73065143 -0.18647296 27.1484375 -0.1953125 C27.9036972 -0.20563507 28.65895691 -0.21595764 29.43710327 -0.22659302 C31.2929398 -0.22699318 33.1481928 -0.12222716 35 0 C37 2 37 2 37.22705078 4.79736328 C37.21657715 5.95993652 37.20610352 7.12250977 37.1953125 8.3203125 C37.18886719 9.57714844 37.18242187 10.83398438 37.17578125 12.12890625 C37.15902344 13.44761719 37.14226562 14.76632812 37.125 16.125 C37.11496983 17.46483721 37.10584404 18.80468152 37.09765625 20.14453125 C37.07402075 23.42986573 37.04107234 26.71484465 37 30 C36.67 30 36.34 30 36 30 C35.97494385 29.2886792 35.9498877 28.5773584 35.92407227 27.84448242 C35.80811561 24.62530483 35.68538755 21.40642015 35.5625 18.1875 C35.52318359 17.06794922 35.48386719 15.94839844 35.44335938 14.79492188 C35.40146484 13.72177734 35.35957031 12.64863281 35.31640625 11.54296875 C35.26141968 10.0583313 35.26141968 10.0583313 35.20532227 8.54370117 C35.09209669 5.8781649 35.09209669 5.8781649 34 3 C31.09774449 1.54887224 28.55088766 1.87014841 25.3125 1.8671875 C24.65419189 1.86623077 23.99588379 1.86527405 23.31762695 1.86428833 C21.92561752 1.86360775 20.5336049 1.86545354 19.14160156 1.86962891 C17.00839117 1.87497896 14.87539133 1.86967988 12.7421875 1.86328125 C11.39062453 1.86394205 10.0390617 1.86522326 8.6875 1.8671875 C7.45386719 1.86831543 6.22023437 1.86944336 4.94921875 1.87060547 C2.06774669 1.79630197 2.06774669 1.79630197 0 3 C0 2.01 0 1.02 0 0 Z " fill="#1B7B1C" transform="translate(189,271)"/>
<path d="M0 0 C13.86 0.495 13.86 0.495 28 1 C27.01 5.95 26.02 10.9 25 16 C24.67 16 24.34 16 24 16 C24.33 11.71 24.66 7.42 25 3 C23.36289062 3.01160156 21.72578125 3.02320313 20.0390625 3.03515625 C17.9010428 3.04453353 15.76302188 3.0536338 13.625 3.0625 C12.54476563 3.07087891 11.46453125 3.07925781 10.3515625 3.08789062 C8.8046875 3.09272461 8.8046875 3.09272461 7.2265625 3.09765625 C6.27346191 3.10289307 5.32036133 3.10812988 4.33837891 3.11352539 C2 3 2 3 0 2 C0 1.34 0 0.68 0 0 Z " fill="#268B26" transform="translate(291,250)"/>
<path d="M0 0 C4.21751282 -0.04946113 8.43487168 -0.08574827 12.65258789 -0.10986328 C14.08718812 -0.119917 15.52176789 -0.13356194 16.95629883 -0.15087891 C19.01909438 -0.17515549 21.08161885 -0.18648919 23.14453125 -0.1953125 C24.38565674 -0.20578613 25.62678223 -0.21625977 26.90551758 -0.22705078 C30 0 30 0 33 2 C34.0592918 5.17787541 34.11458939 7.42588943 34.09765625 10.76171875 C34.09443359 11.87998047 34.09121094 12.99824219 34.08789062 14.15039062 C34.07532227 15.90125977 34.07532227 15.90125977 34.0625 17.6875 C34.05798828 18.86634766 34.05347656 20.04519531 34.04882812 21.25976562 C34.03703273 24.17322789 34.0205727 27.08658863 34 30 C33.01 30.495 33.01 30.495 32 31 C32 22.09 32 13.18 32 4 C31.34 4 30.68 4 30 4 C30 3.34 30 2.68 30 2 C19.77 2 9.54 2 -1 2 C-0.67 1.34 -0.34 0.68 0 0 Z " fill="#022402" transform="translate(191,272)"/>
<path d="M0 0 C0.33 0 0.66 0 1 0 C1.04939115 4.09338652 1.08571501 8.18665798 1.10986328 12.28027344 C1.11992877 13.67320781 1.13358234 15.06612102 1.15087891 16.45898438 C1.1751022 18.4595436 1.18540814 20.46025615 1.1953125 22.4609375 C1.21102295 24.26763916 1.21102295 24.26763916 1.22705078 26.11083984 C1 29 1 29 -1 31 C-3.58103306 31.17502995 -6.05308163 31.23162279 -8.6328125 31.1953125 C-9.76056595 31.19106766 -9.76056595 31.19106766 -10.91110229 31.18673706 C-13.31589578 31.17552874 -15.72031881 31.15042352 -18.125 31.125 C-19.75390088 31.11497102 -21.38280758 31.10584503 -23.01171875 31.09765625 C-27.00795556 31.07558735 -31.00391494 31.04105351 -35 31 C-35 30.67 -35 30.34 -35 30 C-34.08186523 29.97494385 -33.16373047 29.9498877 -32.21777344 29.92407227 C-28.80342975 29.8287973 -25.38924797 29.72957222 -21.97509766 29.62768555 C-20.4989061 29.58443965 -19.02266785 29.54275744 -17.54638672 29.50268555 C-15.42140652 29.44473154 -13.29665907 29.38111054 -11.171875 29.31640625 C-9.8940918 29.27974854 -8.61630859 29.24309082 -7.29980469 29.20532227 C-3.8487208 29.09096884 -3.8487208 29.09096884 0 28 C0 18.76 0 9.52 0 0 Z " fill="#002200" transform="translate(275,170)"/>
<path d="M0 0 C0.99 0 1.98 0 3 0 C2.51781006 0.79519043 2.51781006 0.79519043 2.02587891 1.60644531 C0.74074771 4.60488087 0.67816781 7.03807071 0.5859375 10.296875 C0.54726562 11.50214844 0.50859375 12.70742187 0.46875 13.94921875 C0.4378125 15.20347656 0.406875 16.45773438 0.375 17.75 C0.33632812 19.01972656 0.29765625 20.28945312 0.2578125 21.59765625 C0.16355778 24.7316257 0.07794834 27.86558949 0 31 C-0.66 31 -1.32 31 -2 31 C-2.05817206 26.77089131 -2.09365463 22.54188591 -2.125 18.3125 C-2.14175781 17.11431641 -2.15851563 15.91613281 -2.17578125 14.68164062 C-2.18222656 13.52470703 -2.18867188 12.36777344 -2.1953125 11.17578125 C-2.20578613 10.11270752 -2.21625977 9.04963379 -2.22705078 7.9543457 C-1.99375431 4.91873219 -1.28205135 2.74376733 0 0 Z " fill="#19811A" transform="translate(238,113)"/>
<path d="M0 0 C0.66 0.33 1.32 0.66 2 1 C1.59007812 1.54269531 1.18015625 2.08539063 0.7578125 2.64453125 C0.21898437 3.35996094 -0.31984375 4.07539062 -0.875 4.8125 C-1.40867187 5.52019531 -1.94234375 6.22789062 -2.4921875 6.95703125 C-3.70814781 8.60456297 -4.86416141 10.29624211 -6 12 C-6.66 11.67 -7.32 11.34 -8 11 C-8.33 11.99 -8.66 12.98 -9 14 C-11.06640625 14.94921875 -11.06640625 14.94921875 -13.5625 15.6875 C-14.80193359 16.06455078 -14.80193359 16.06455078 -16.06640625 16.44921875 C-16.70449219 16.63097656 -17.34257812 16.81273437 -18 17 C-14.16713416 13.10938854 -10.21140271 9.37944195 -6.1875 5.6875 C-5.2912793 4.86282227 -5.2912793 4.86282227 -4.37695312 4.02148438 C-2.91885078 2.68003022 -1.4595496 1.33987935 0 0 Z " fill="#DCAD3E" transform="translate(402,122)"/>
<path d="M0 0 C7.75451806 0.58006237 15.34742277 1.62440584 23 3 C23 3.33 23 3.66 23 4 C18.915021 4.54466387 15.1274515 5 11 5 C11 5.99 11 6.98 11 8 C6.71522208 5.69281189 3.27708863 3.67033927 0 0 Z " fill="#DEAE43" transform="translate(195,30)"/>
<path d="M0 0 C2.63884562 2.40111178 4.36413529 5.00555028 6.1875 8.0625 C6.71730469 8.94035156 7.24710937 9.81820312 7.79296875 10.72265625 C9 13 9 13 9 15 C5.37 15 1.74 15 -2 15 C-1.67 13.35 -1.34 11.7 -1 10 C0.65 10.33 2.3 10.66 4 11 C3.71125 10.29875 3.4225 9.5975 3.125 8.875 C1.97866412 5.94547497 0.97374346 2.99078347 0 0 Z " fill="#239B24" transform="translate(293,152)"/>
<path d="M0 0 C0.33 1.32 0.66 2.64 1 4 C-5.625 7 -5.625 7 -9 7 C-9 11.62 -9 16.24 -9 21 C-6.4609375 20.90234375 -3.921875 20.8046875 -1.3828125 20.70703125 C-0.20332031 20.85205078 -0.20332031 20.85205078 1 21 C1.66 21.99 2.32 22.98 3 24 C2.67 24.99 2.34 25.98 2 27 C1.505 26.360625 1.01 25.72125 0.5 25.0625 C-2.50051072 22.21188497 -2.50051072 22.21188497 -10 22 C-10 16.39 -10 10.78 -10 5 C-7.36 4.34 -4.72 3.68 -2 3 C-1.34 2.01 -0.68 1.02 0 0 Z " fill="#29972E" transform="translate(176,196)"/>
<path d="M0 0 C2.64 0 5.28 0 8 0 C6.7934375 0.9590625 6.7934375 0.9590625 5.5625 1.9375 C3.7249496 3.40603502 3.7249496 3.40603502 2 5 C1.84259395 6.70563778 1.74906608 8.41727244 1.68359375 10.12890625 C1.64169922 11.16337891 1.59980469 12.19785156 1.55664062 13.26367188 C1.51732422 14.35228516 1.47800781 15.44089844 1.4375 16.5625 C1.39431641 17.65498047 1.35113281 18.74746094 1.30664062 19.87304688 C1.20017932 22.58189564 1.09816484 25.29083992 1 28 C0.67 28 0.34 28 0 28 C-0.19812858 24.45884475 -0.38159963 20.91707384 -0.5625 17.375 C-0.61857422 16.37597656 -0.67464844 15.37695312 -0.73242188 14.34765625 C-0.97786206 9.40612714 -1.12056885 4.86409887 0 0 Z " fill="#289E27" transform="translate(186,217)"/>
<path d="M0 0 C1.9490625 0.2475 1.9490625 0.2475 3.9375 0.5 C7 1 7 1 8 2 C9.34747084 2.23075082 10.70377565 2.41153063 12.0625 2.5625 C13.361875 2.706875 14.66125 2.85125 16 3 C16 3.66 16 4.32 16 5 C6.25175813 4.20096378 -3.353358 2.57475983 -13 1 C-13 0.67 -13 0.34 -13 0 C-8.50700989 -1.26365347 -4.52689303 -0.70171121 0 0 Z " fill="#D9AD47" transform="translate(208,86)"/>
<path d="M0 0 C1.62600941 0.0870005 3.25089678 0.1951781 4.875 0.3125 C5.77992188 0.37050781 6.68484375 0.42851563 7.6171875 0.48828125 C10 1 10 1 12 4 C12 4.99 12 5.98 12 7 C13.98 7.66 15.96 8.32 18 9 C18 9.66 18 10.32 18 11 C18.66 11.33 19.32 11.66 20 12 C16.21986906 12 14.82404588 10.81500116 11.6875 8.75 C10.71554687 8.11320313 9.74359375 7.47640625 8.7421875 6.8203125 C7.83726562 6.21960938 6.93234375 5.61890625 6 5 C5.32195312 4.56429687 4.64390625 4.12859375 3.9453125 3.6796875 C2.60990676 2.81710485 1.3007337 1.91402908 0 1 C0 0.67 0 0.34 0 0 Z " fill="#CCA641" transform="translate(328,120)"/>
<path d="M0 0 C0.33 0.99 0.66 1.98 1 3 C-0.26457031 3.07347656 -0.26457031 3.07347656 -1.5546875 3.1484375 C-2.65039062 3.22320312 -3.74609375 3.29796875 -4.875 3.375 C-6.51082031 3.47941406 -6.51082031 3.47941406 -8.1796875 3.5859375 C-11.13046474 3.73253491 -11.13046474 3.73253491 -13 6 C-13.37207354 8.71615864 -13.37207354 8.71615864 -13.4140625 11.8828125 C-13.45273437 13.04941406 -13.49140625 14.21601563 -13.53125 15.41796875 C-13.5621875 16.64128906 -13.593125 17.86460937 -13.625 19.125 C-13.66367187 20.35605469 -13.70234375 21.58710938 -13.7421875 22.85546875 C-13.8366999 25.90349376 -13.92225494 28.95150862 -14 32 C-14.33 32 -14.66 32 -15 32 C-15.05793591 27.56255461 -15.09357467 23.12520611 -15.125 18.6875 C-15.14175781 17.42486328 -15.15851563 16.16222656 -15.17578125 14.86132812 C-15.18222656 13.65283203 -15.18867188 12.44433594 -15.1953125 11.19921875 C-15.20578613 10.08377686 -15.21625977 8.96833496 -15.22705078 7.8190918 C-15 5 -15 5 -13 2 C-9.9609375 1.70703125 -9.9609375 1.70703125 -6.375 1.8125 C-5.18648438 1.83957031 -3.99796875 1.86664063 -2.7734375 1.89453125 C-1.85820312 1.92933594 -0.94296875 1.96414062 0 2 C0 1.34 0 0.68 0 0 Z " fill="#002B00" transform="translate(303,166)"/>
<path d="M0 0 C2.97 0 5.94 0 9 0 C9.66 1.32 10.32 2.64 11 4 C11.66 4.33 12.32 4.66 13 5 C13 5.66 13 6.32 13 7 C13.99 8.485 13.99 8.485 15 10 C11.58809167 8.38340534 8.43782465 6.45729895 5.25 4.4375 C4.26515625 3.81746094 3.2803125 3.19742188 2.265625 2.55859375 C1.51796875 2.04425781 0.7703125 1.52992187 0 1 C0 0.67 0 0.34 0 0 Z " fill="#E1B23B" transform="translate(236,58)"/>
<path d="M0 0 C17.03975874 -0.32016248 17.03975874 -0.32016248 22.0625 3.0625 C22.701875 3.701875 23.34125 4.34125 24 5 C23.34 6.32 22.68 7.64 22 9 C21.67 9 21.34 9 21 9 C21 7.35 21 5.7 21 4 C19.81921875 3.87882812 18.6384375 3.75765625 17.421875 3.6328125 C15.86453957 3.4639448 14.30725023 3.29465165 12.75 3.125 C11.97269531 3.04636719 11.19539063 2.96773437 10.39453125 2.88671875 C3.27568856 2.09573623 3.27568856 2.09573623 0 0 Z " fill="#C69E3F" transform="translate(422,61)"/>
<path d="M0 0 C1.74965358 -0.05429959 3.49979787 -0.09292823 5.25 -0.125 C6.22453125 -0.14820313 7.1990625 -0.17140625 8.203125 -0.1953125 C11.10258263 0.00716359 12.6344417 0.33573554 15 2 C16.85722471 5.01004183 17.2403003 7.25657663 17.1953125 10.765625 C17.18886719 11.65507812 17.18242187 12.54453125 17.17578125 13.4609375 C17.15902344 14.38132813 17.14226562 15.30171875 17.125 16.25 C17.11597656 17.18585938 17.10695312 18.12171875 17.09765625 19.0859375 C17.07413636 21.39088657 17.04126853 23.6953116 17 26 C16.67 26 16.34 26 16 26 C15.98582031 24.68644531 15.97164062 23.37289062 15.95703125 22.01953125 C15.91012012 20.28381949 15.86187279 18.54814348 15.8125 16.8125 C15.80669922 15.94818359 15.80089844 15.08386719 15.79492188 14.19335938 C15.64320699 9.79362761 15.42354986 7.58461812 12.78125 3.9375 C9.81638711 1.87208989 8.25377866 1.33015115 4.6875 1.1875 C3.80449219 1.13980469 2.92148438 1.09210938 2.01171875 1.04296875 C1.34785156 1.02878906 0.68398437 1.01460937 0 1 C0 0.67 0 0.34 0 0 Z " fill="#259D26" transform="translate(208,166)"/>
<path d="M0 0 C3.56311404 0.11029647 7.12521145 0.24082717 10.6875 0.375 C11.69490234 0.4059375 12.70230469 0.436875 13.74023438 0.46875 C14.71669922 0.50742187 15.69316406 0.54609375 16.69921875 0.5859375 C17.59471436 0.6173584 18.49020996 0.6487793 19.4128418 0.68115234 C22.21592507 1.02661113 24.43264531 1.84681468 27 3 C27 3.33 27 3.66 27 4 C17.85719039 3.56408185 8.97145478 2.9577539 0 1 C0 0.67 0 0.34 0 0 Z " fill="#47320C" transform="translate(277,42)"/>
<path d="M0 0 C0 3 0 3 -1.3984375 4.47265625 C-2.05070312 4.99730469 -2.70296875 5.52195313 -3.375 6.0625 C-8.56668419 10.39820759 -13.26437971 15.17704245 -18 20 C-18.66 19.67 -19.32 19.34 -20 19 C-13.88546361 11.76823967 -7.47842356 5.78704178 0 0 Z " fill="#DDDDDD" transform="translate(84,131)"/>
<path d="M0 0 C0 3.54823932 -0.67734388 4.41927097 -3 7 C-3.99 7.33 -4.98 7.66 -6 8 C-6.45375 8.61875 -6.9075 9.2375 -7.375 9.875 C-9.30974305 12.4050486 -11.16432217 13.58216109 -14 15 C-14.99 15 -15.98 15 -17 15 C-14.91880554 13.06015834 -12.83515453 11.12307706 -10.75 9.1875 C-9.87021484 8.36668945 -9.87021484 8.36668945 -8.97265625 7.52929688 C-6.08463321 4.85219687 -3.22478709 2.27491168 0 0 Z " fill="#CDA442" transform="translate(436,93)"/>
<path d="M0 0 C8.10036134 0.54576903 16.01348818 1.54147036 24 3 C24 3.33 24 3.66 24 4 C21.70954632 4.22127098 19.41755236 4.4266504 17.125 4.625 C15.84882813 4.74101563 14.57265625 4.85703125 13.2578125 4.9765625 C12.18273437 4.98429687 11.10765625 4.99203125 10 5 C9.34 4.34 8.68 3.68 8 3 C5.34462628 2.43479997 2.70855287 2.26211802 0 2 C0 1.34 0 0.68 0 0 Z " fill="#CCA340" transform="translate(228,35)"/>
<path d="M0 0 C11.22 0 22.44 0 34 0 C34.495 0.99 34.495 0.99 35 2 C34.01604248 1.98952637 33.03208496 1.97905273 32.01831055 1.96826172 C28.36746865 1.93205969 24.71664263 1.90909885 21.06567383 1.89013672 C19.48556856 1.88007959 17.9054819 1.86643215 16.32543945 1.84912109 C14.0541525 1.82485978 11.78311164 1.81351418 9.51171875 1.8046875 C8.45219246 1.78920364 8.45219246 1.78920364 7.3712616 1.77340698 C3.67802208 1.77256225 2.16080784 1.89279477 -1 4 C-0.67 2.68 -0.34 1.36 0 0 Z " fill="#228F23" transform="translate(187,113)"/>
<path d="M0 0 C0.68408936 0.16298584 1.36817871 0.32597168 2.07299805 0.49389648 C5.38118397 1.06590995 8.47465976 1.11244643 11.83203125 1.09765625 C13.12431641 1.09443359 14.41660156 1.09121094 15.74804688 1.08789062 C17.10286526 1.07953665 18.45768297 1.07107172 19.8125 1.0625 C21.18684735 1.05748 22.56119645 1.05291797 23.93554688 1.04882812 C27.29040924 1.03705668 30.64518221 1.02061283 34 1 C33.67 1.66 33.34 2.32 33 3 C28.62178091 3.0740719 24.24389218 3.12856375 19.86523438 3.16479492 C18.37526091 3.179896 16.88533199 3.20037858 15.39550781 3.22631836 C13.2557477 3.26264584 11.11657434 3.27971221 8.9765625 3.29296875 C7.68830566 3.3086792 6.40004883 3.32438965 5.07275391 3.34057617 C4.05874512 3.22818604 3.04473633 3.1157959 2 3 C1.34 2.01 0.68 1.02 0 0 Z " fill="#001800" transform="translate(189,248)"/>
<path d="M0 0 C-2.21168175 5.42867339 -6.66737182 9.65884617 -12 12 C-15.3125 11.6875 -15.3125 11.6875 -18 11 C-18 10.67 -18 10.34 -18 10 C-17.030625 9.835 -16.06125 9.67 -15.0625 9.5 C-10.33604927 8.20746041 -7.3674614 5.01637403 -3.91796875 1.6796875 C-2 0 -2 0 0 0 Z " fill="#2D1B05" transform="translate(375,130)"/>
<path d="M0 0 C0.66 0.33 1.32 0.66 2 1 C-0.21248977 3.32896017 -2.44758446 5.63492948 -4.6875 7.9375 C-5.31333984 8.59685547 -5.93917969 9.25621094 -6.58398438 9.93554688 C-12.39466367 15.86791578 -12.39466367 15.86791578 -17 16 C-15.33333333 14.33333333 -13.66666667 12.66666667 -12 11 C-11.443125 10.401875 -10.88625 9.80375 -10.3125 9.1875 C-9 8 -9 8 -7 8 C-7 7.34 -7 6.68 -7 6 C-5.46875 4.4921875 -5.46875 4.4921875 -3.5 2.875 C-2.8503125 2.33617188 -2.200625 1.79734375 -1.53125 1.2421875 C-0.77328125 0.62730469 -0.77328125 0.62730469 0 0 Z " fill="#281803" transform="translate(403,104)"/>
<path d="M0 0 C2.86724686 0.57344937 3.8614515 0.8614515 6 3 C6.13525391 5.61376953 6.13525391 5.61376953 5.9765625 8.8828125 C5.925 10.04941406 5.8734375 11.21601563 5.8203125 12.41796875 C5.75585938 13.64128906 5.69140625 14.86460937 5.625 16.125 C5.56828125 17.35605469 5.5115625 18.58710938 5.453125 19.85546875 C5.31132317 22.90420806 5.15988027 25.95216388 5 29 C4.67 29 4.34 29 4 29 C3.97812622 27.89543457 3.97812622 27.89543457 3.95581055 26.76855469 C3.88128889 23.42850996 3.78464127 20.08946019 3.6875 16.75 C3.66494141 15.59113281 3.64238281 14.43226563 3.61914062 13.23828125 C3.58369141 12.12324219 3.54824219 11.00820312 3.51171875 9.859375 C3.48553467 8.83295898 3.45935059 7.80654297 3.43237305 6.74902344 C2.95100114 3.68846573 2.04762948 2.27885191 0 0 Z " fill="#299C2B" transform="translate(222,218)"/>
<path d="M0 0 C0.78165527 0.23771118 0.78165527 0.23771118 1.57910156 0.48022461 C4.65107932 1.13978902 7.59339747 1.21997273 10.734375 1.31640625 C12.02988281 1.35830078 13.32539063 1.40019531 14.66015625 1.44335938 C16.02343476 1.48316671 17.38671606 1.52287906 18.75 1.5625 C20.12891875 1.60572274 21.50782526 1.64933821 22.88671875 1.69335938 C26.2577119 1.79943958 29.62877826 1.9014985 33 2 C33 2.33 33 2.66 33 3 C22.44 3 11.88 3 1 3 C0.67 2.01 0.34 1.02 0 0 Z " fill="#269E29" transform="translate(239,146)"/>
<path d="M0 0 C-0.25018073 3.37743989 -1.25719913 4.25135369 -3.75 6.6875 C-6.76184693 8.83054493 -8.39133078 9.68158801 -12 10 C-4.57142857 0 -4.57142857 0 0 0 Z " fill="#D4A83E" transform="translate(418,110)"/>
<path d="M0 0 C7.39954511 -0.36391205 7.39954511 -0.36391205 10.0625 1.25 C11.29508824 3.55083139 10.71811371 4.56946129 10 7 C8.51719804 6.21516341 7.0388502 5.42190666 5.5625 4.625 C4.73878906 4.18414062 3.91507812 3.74328125 3.06640625 3.2890625 C1 2 1 2 0 0 Z " fill="#DDAD3D" transform="translate(260,74)"/>
<path d="M0 0 C0.66 0.33 1.32 0.66 2 1 C-0.4581652 2.31281572 -2.91652422 3.62526612 -5.375 4.9375 C-6.42300781 5.49727539 -6.42300781 5.49727539 -7.4921875 6.06835938 C-12.7734375 8.88671875 -12.7734375 8.88671875 -15 10 C-15.66 9.34 -16.32 8.68 -17 8 C-14.21443118 6.63301613 -11.42068672 5.28365462 -8.625 3.9375 C-7.8309375 3.54755859 -7.036875 3.15761719 -6.21875 2.75585938 C-5.45820313 2.39169922 -4.69765625 2.02753906 -3.9140625 1.65234375 C-2.8614624 1.14175415 -2.8614624 1.14175415 -1.78759766 0.62084961 C-1.19769043 0.41596924 -0.6077832 0.21108887 0 0 Z " fill="#032703" transform="translate(239,314)"/>
<path d="M0 0 C0.33 0 0.66 0 1 0 C1.27554763 2.77045173 1.52123257 5.53813416 1.75 8.3125 C1.87181641 9.49102539 1.87181641 9.49102539 1.99609375 10.69335938 C2.16199606 12.85930623 2.26434203 14.84320934 2 17 C-0.2875832 19.56367083 -1.33045312 19.95434908 -4.75 20.1875 C-5.86375 20.0946875 -5.86375 20.0946875 -7 20 C-3.375 17 -3.375 17 0 17 C0 11.39 0 5.78 0 0 Z " fill="#0A3A09" transform="translate(290,275)"/>
<path d="M0 0 C2.31 0 4.62 0 7 0 C4.15497903 1.89668064 1.42700115 3.23263478 -1.6875 4.625 C-2.68136719 5.07101563 -3.67523438 5.51703125 -4.69921875 5.9765625 C-5.45847656 6.31429687 -6.21773438 6.65203125 -7 7 C-7.66 6.34 -8.32 5.68 -9 5 C-7.35 4.67 -5.7 4.34 -4 4 C-4 3.01 -4 2.02 -4 1 C-2.68 1.33 -1.36 1.66 0 2 C0 1.34 0 0.68 0 0 Z " fill="#DBB140" transform="translate(393,235)"/>
<path d="M0 0 C3.63 1.98 7.26 3.96 11 6 C11 6.99 11 7.98 11 9 C10.67 8.34 10.34 7.68 10 7 C6.35526801 6.10906551 3.57257469 5.76333953 0 7 C0 4.69 0 2.38 0 0 Z " fill="#DEB041" transform="translate(290,111)"/>
<path d="M0 0 C0 1.65 0 3.3 0 5 C1.32 5 2.64 5 4 5 C4.33 5.99 4.66 6.98 5 8 C3.55903414 7.57405412 2.12231288 7.13373367 0.6875 6.6875 C-0.11300781 6.44386719 -0.91351563 6.20023437 -1.73828125 5.94921875 C-4.09964573 4.95817977 -5.33879993 3.91925057 -7 2 C-4.35261084 0.5393715 -3.10551666 0 0 0 Z " fill="#DDAF3F" transform="translate(259,98)"/>
<path d="M0 0 C2.97 0.495 2.97 0.495 6 1 C6 1.66 6 2.32 6 3 C6.99 2.67 7.98 2.34 9 2 C9.061875 2.61875 9.12375 3.2375 9.1875 3.875 C9.828919 6.27761141 9.828919 6.27761141 12.5625 7.25 C13.366875 7.4975 14.17125 7.745 15 8 C14.67 8.66 14.34 9.32 14 10 C12.22611914 8.90073597 10.45600316 7.79539498 8.6875 6.6875 C7.20830078 5.76517578 7.20830078 5.76517578 5.69921875 4.82421875 C3.49827965 3.33675339 1.76671012 1.9596614 0 0 Z " fill="#CFA741" transform="translate(285,91)"/>
<path d="M0 0 C4.10958767 1.45044271 7.43258745 3.51110752 11 6 C7.09380015 7.25556424 4.63177916 6.81588958 1 5 C0.375 2.4375 0.375 2.4375 0 0 Z " fill="#DBAD41" transform="translate(220,64)"/>
<path d="M0 0 C-1.95330868 1.03041513 -3.91281528 2.0490893 -5.875 3.0625 C-6.96554688 3.63097656 -8.05609375 4.19945312 -9.1796875 4.78515625 C-10.11039063 5.18605469 -11.04109375 5.58695312 -12 6 C-12.66 5.67 -13.32 5.34 -14 5 C-13.67 3.35 -13.34 1.7 -13 0 C-12.2575 0.20625 -11.515 0.4125 -10.75 0.625 C-6.40638977 1.21731049 -4.46860265 -1.33779372 0 0 Z " fill="#269B28" transform="translate(238,315)"/>
<path d="M0 0 C0.66 0.33 1.32 0.66 2 1 C-4.15034169 8.48291572 -4.15034169 8.48291572 -8 11 C-8.66 10.67 -9.32 10.34 -10 10 C-6.92118304 6.12948725 -3.99926986 2.97088618 0 0 Z " fill="#525252" transform="translate(75,121)"/>
<path d="M0 0 C2.125 0.375 2.125 0.375 4 1 C4 1.99 4 2.98 4 4 C1.5 6.1875 1.5 6.1875 -1 8 C-1.625 5.125 -1.625 5.125 -2 2 C-1.34 1.34 -0.68 0.68 0 0 Z " fill="#E2B03D" transform="translate(435,70)"/>
<path d="M0 0 C1.65 0 3.3 0 5 0 C2.42076634 3.15842999 -0.35531286 3.99251691 -4.1875 5.1875 C-5.81751953 5.70376953 -5.81751953 5.70376953 -7.48046875 6.23046875 C-8.31191406 6.48441406 -9.14335937 6.73835937 -10 7 C-9.67 6.01 -9.34 5.02 -9 4 C-8.01 4 -7.02 4 -6 4 C-6 3.34 -6 2.68 -6 2 C-4.02 2 -2.04 2 0 2 C0 1.34 0 0.68 0 0 Z " fill="#D3AA44" transform="translate(438,216)"/>
<path d="M0 0 C0.66 0.33 1.32 0.66 2 1 C0.95759826 2.51403595 -0.10975321 4.01091702 -1.1875 5.5 C-1.77917969 6.3353125 -2.37085938 7.170625 -2.98046875 8.03125 C-5 10 -5 10 -7.73828125 10.28125 C-8.48464844 10.1884375 -9.23101562 10.095625 -10 10 C-6.66666667 6.66666667 -3.33333333 3.33333333 0 0 Z " fill="#CFA43E" transform="translate(402,122)"/>
<path d="M0 0 C2.31 0.66 4.62 1.32 7 2 C7 2.66 7 3.32 7 4 C8.32 3.67 9.64 3.34 11 3 C11.33 4.65 11.66 6.3 12 8 C7.44328408 6.48109469 3.68276708 4.04597738 0 1 C0 0.67 0 0.34 0 0 Z " fill="#CAA33D" transform="translate(211,41)"/>
<path d="M0 0 C1.125 3.75 1.125 3.75 0 6 C-3.42232972 7.14077657 -6.08673217 7.09815117 -9.6875 7.0625 C-11.45673828 7.04896484 -11.45673828 7.04896484 -13.26171875 7.03515625 C-14.16535156 7.02355469 -15.06898438 7.01195312 -16 7 C-16 6.67 -16 6.34 -16 6 C-11.38 5.67 -6.76 5.34 -2 5 C-1.34 3.35 -0.68 1.7 0 0 Z " fill="#217C21" transform="translate(179,299)"/>
<path d="M0 0 C0.66 0.66 1.32 1.32 2 2 C-3.15171623 2.09038099 -7.91913204 1.84681133 -13 1 C-13 0.67 -13 0.34 -13 0 C-8.36878255 -1.30252991 -4.67293943 -0.84266121 0 0 Z " fill="#CE9E3D" transform="translate(208,86)"/>
<path d="M0 0 C1.62600941 0.0870005 3.25089678 0.1951781 4.875 0.3125 C5.77992188 0.37050781 6.68484375 0.42851563 7.6171875 0.48828125 C10 1 10 1 12 4 C12 4.66 12 5.32 12 6 C10.55903414 5.57405412 9.12231288 5.13373367 7.6875 4.6875 C6.88699219 4.44386719 6.08648437 4.20023437 5.26171875 3.94921875 C2.90035427 2.95817977 1.66120007 1.91925057 0 0 Z " fill="#DCB03D" transform="translate(328,120)"/>
<path d="M0 0 C5.875 2.75 5.875 2.75 7 5 C4.69 5.33 2.38 5.66 0 6 C-1 3 -1 3 0 0 Z " fill="#E1AF40" transform="translate(259,90)"/>
<path d="M0 0 C0.99 0.66 1.98 1.32 3 2 C-0.3 3.32 -3.6 4.64 -7 6 C-7 5.01 -7 4.02 -7 3 C-4.46815512 0.64276511 -3.52809907 0 0 0 Z " fill="#100D12" transform="translate(189,340)"/>
<path d="M0 0 C2.00720923 0.28674418 4.0085944 0.61866701 6 1 C1.375 5 1.375 5 -2 5 C-1.125 1.125 -1.125 1.125 0 0 Z " fill="#221F22" transform="translate(285,295)"/>
<path d="M0 0 C4.75 0.75 4.75 0.75 7 3 C7.1953125 5.1640625 7.1953125 5.1640625 7.125 7.625 C7.10695312 8.44226563 7.08890625 9.25953125 7.0703125 10.1015625 C7.03550781 11.04128906 7.03550781 11.04128906 7 12 C6.67 12 6.34 12 6 12 C6 9.36 6 6.72 6 4 C5.01 4 4.02 4 3 4 C3 3.34 3 2.68 3 2 C2.01 2 1.02 2 0 2 C0 1.34 0 0.68 0 0 Z " fill="#011B01" transform="translate(169,114)"/>
<path d="M0 0 C0.33 0.99 0.66 1.98 1 3 C0.16855469 3.04898438 -0.66289062 3.09796875 -1.51953125 3.1484375 C-2.60621094 3.22320312 -3.69289063 3.29796875 -4.8125 3.375 C-5.89144531 3.44460937 -6.97039062 3.51421875 -8.08203125 3.5859375 C-11.18626186 3.81195733 -11.18626186 3.81195733 -14 6 C-13.67 4.68 -13.34 3.36 -13 2 C-8.71 2 -4.42 2 0 2 C0 1.34 0 0.68 0 0 Z " fill="#001900" transform="translate(303,166)"/>
<path d="M0 0 C1.0625 1.8125 1.0625 1.8125 2 4 C1.67 4.99 1.34 5.98 1 7 C0.4225 6.62875 -0.155 6.2575 -0.75 5.875 C-3 4.70833333 -3 4.70833333 -5.25 5.875 C-6.11625 6.431875 -6.11625 6.431875 -7 7 C-4.66666667 4.66666667 -2.33333333 2.33333333 0 0 Z " fill="#D4A83E" transform="translate(383,139)"/>
<path d="M0 0 C1.2065625 0.0309375 1.2065625 0.0309375 2.4375 0.0625 C-2.3125 4.9375 -2.3125 4.9375 -4.5625 6.0625 C-3.48963568 0.08511307 -3.48963568 0.08511307 0 0 Z " fill="#DCAF41" transform="translate(367.5625,132.9375)"/>
<path d="M0 0 C3.375 -0.125 3.375 -0.125 7 0 C7.66 0.66 8.32 1.32 9 2 C8.67 2.66 8.34 3.32 8 4 C4.31245243 3.50168276 2.39509338 2.89932357 0 0 Z " fill="#DCAF3F" transform="translate(319,114)"/>
<path d="M0 0 C5.75 0.875 5.75 0.875 8 2 C8 2.99 8 3.98 8 5 C8.66 5 9.32 5 10 5 C9.67 5.66 9.34 6.32 9 7 C7.4972763 6.02501855 5.99788037 5.04490611 4.5 4.0625 C3.6646875 3.51722656 2.829375 2.97195312 1.96875 2.41015625 C1.3190625 1.94480469 0.669375 1.47945313 0 1 C0 0.67 0 0.34 0 0 Z " fill="#301C04" transform="translate(229,69)"/>
<path d="M0 0 C1.79093191 -0.08086147 3.58289628 -0.13912702 5.375 -0.1875 C6.87160156 -0.23970703 6.87160156 -0.23970703 8.3984375 -0.29296875 C9.25695312 -0.19628906 10.11546875 -0.09960938 11 0 C11.66 0.99 12.32 1.98 13 3 C12.67 3.99 12.34 4.98 12 6 C11.505 5.360625 11.01 4.72125 10.5 4.0625 C7.01193613 1.18484731 4.46538959 1.29769264 0 1 C0 0.67 0 0.34 0 0 Z " fill="#218723" transform="translate(166,217)"/>
<path d="M0 0 C0.99 0 1.98 0 3 0 C1.95125002 2.62187494 1.35068687 3.79371361 -1.125 5.25 C-1.74375 5.4975 -2.3625 5.745 -3 6 C-3.33 4.35 -3.66 2.7 -4 1 C-2.68 1.33 -1.36 1.66 0 2 C0 1.34 0 0.68 0 0 Z " fill="#DAA844" transform="translate(389,113)"/>
<path d="M0 0 C2.31 0.33 4.62 0.66 7 1 C7 2.65 7 4.3 7 6 C3.535 4.02 3.535 4.02 0 2 C0 1.34 0 0.68 0 0 Z " fill="#D2AA3E" transform="translate(304,103)"/>
<path d="M0 0 C4.55384615 -0.36923077 4.55384615 -0.36923077 6.8125 1.5 C7.204375 1.995 7.59625 2.49 8 3 C7.34 4.32 6.68 5.64 6 7 C5.67 7 5.34 7 5 7 C5 5.35 5 3.7 5 2 C3.35 1.67 1.7 1.34 0 1 C0 0.67 0 0.34 0 0 Z " fill="#CBA544" transform="translate(438,63)"/>
<path d="M0 0 C0.66 0.99 1.32 1.98 2 3 C1.67 3.66 1.34 4.32 1 5 C2.65 5 4.3 5 6 5 C6 5.33 6 5.66 6 6 C2.7 6 -0.6 6 -4 6 C-3.01 5.67 -2.02 5.34 -1 5 C-0.67 3.35 -0.34 1.7 0 0 Z " fill="#23A525" transform="translate(167,319)"/>
<path d="M0 0 C0.33 0.66 0.66 1.32 1 2 C1.66 2 2.32 2 3 2 C3 5.63 3 9.26 3 13 C2.67 13 2.34 13 2 13 C1.66127487 11.58461283 1.32925376 10.16762037 1 8.75 C0.814375 7.96109375 0.62875 7.1721875 0.4375 6.359375 C0 4 0 4 0 0 Z " fill="#D6AB44" transform="translate(334,198)"/>
<path d="M0 0 C0.99 0 1.98 0 3 0 C2.69320312 0.56203125 2.38640625 1.1240625 2.0703125 1.703125 C0.97042415 4.06346934 0.39904149 6.20465562 -0.125 8.75 C-0.29257813 9.54921875 -0.46015625 10.3484375 -0.6328125 11.171875 C-0.75398437 11.77515625 -0.87515625 12.3784375 -1 13 C-1.33 13 -1.66 13 -2 13 C-2.16682272 8.07872966 -2.24828052 4.49656104 0 0 Z " fill="#2B972B" transform="translate(238,113)"/>
<path d="M0 0 C1.98 0 3.96 0 6 0 C6 1.32 6 2.64 6 4 C6.66 4 7.32 4 8 4 C7.67 4.66 7.34 5.32 7 6 C5.83054208 5.19152271 4.66449539 4.37810888 3.5 3.5625 C2.8503125 3.11003906 2.200625 2.65757813 1.53125 2.19140625 C1.0259375 1.79824219 0.520625 1.40507813 0 1 C0 0.67 0 0.34 0 0 Z " fill="#D0A841" transform="translate(286,120)"/>
<path d="M0 0 C3.02419525 0.58803797 6.01758453 1.22678118 9 2 C8.67 2.99 8.34 3.98 8 5 C4.62496331 3.8141763 2.35277269 2.72426311 0 0 Z " fill="#D0A340" transform="translate(266,107)"/>
<path d="M0 0 C1.65 1.32 3.3 2.64 5 4 C3.625 5.5 3.625 5.5 2 7 C1.34 7 0.68 7 0 7 C0 6.34 0 5.68 0 5 C-0.66 4.67 -1.32 4.34 -2 4 C-1.34 4 -0.68 4 0 4 C0 2.68 0 1.36 0 0 Z " fill="#E1AD3E" transform="translate(403,97)"/>
<path d="M0 0 C3.63 0.33 7.26 0.66 11 1 C11 1.33 11 1.66 11 2 C9.35 2 7.7 2 6 2 C6 2.66 6 3.32 6 4 C1.125 2.25 1.125 2.25 0 0 Z " fill="#C9A449" transform="translate(195,30)"/>
<path d="M0 0 C0.33 0 0.66 0 1 0 C1.04898437 0.77085937 1.09796875 1.54171875 1.1484375 2.3359375 C1.22320312 3.33882813 1.29796875 4.34171875 1.375 5.375 C1.44460938 6.37273437 1.51421875 7.37046875 1.5859375 8.3984375 C1.76363964 11.15508879 1.76363964 11.15508879 4 13 C2.68 13.33 1.36 13.66 0 14 C0 9.38 0 4.76 0 0 Z " fill="#279B28" transform="translate(279,282)"/>
<path d="M0 0 C-3.79692186 2.82561627 -6.18569279 4.56638908 -11 4 C-3.77464789 -1.88732394 -3.77464789 -1.88732394 0 0 Z " fill="#3B2707" transform="translate(347,260)"/>
<path d="M0 0 C-0.33 0.99 -0.66 1.98 -1 3 C-4.80269732 4.6900877 -7.05272168 5.19873962 -11 4 C-9.5437455 3.32880451 -8.08492133 2.66318193 -6.625 2 C-5.81289063 1.62875 -5.00078125 1.2575 -4.1640625 0.875 C-2 0 -2 0 0 0 Z " fill="#432F08" transform="translate(374,247)"/>
<path d="M0 0 C0 3.52809907 -0.64276511 4.46815512 -3 7 C-3.99 7 -4.98 7 -6 7 C-4.60667426 3.63279613 -3.0210714 2.0140476 0 0 Z " fill="#D5AA3F" transform="translate(436,93)"/>
<path d="M0 0 C3.93673644 1.31224548 6.22719294 2.91910327 9 6 C4.9666466 6 3.16482462 4.39120082 0 2 C0 1.34 0 0.68 0 0 Z " fill="#CEA440" transform="translate(195,47)"/>
<path d="M0 0 C6.52307692 -0.36923077 6.52307692 -0.36923077 8.9375 1.5 C9.288125 1.995 9.63875 2.49 10 3 C3.47692308 3.36923077 3.47692308 3.36923077 1.0625 1.5 C0.5365625 0.7575 0.5365625 0.7575 0 0 Z " fill="#D1A740" transform="translate(353,137)"/>
<path d="M0 0 C1.65 0 3.3 0 5 0 C3.35 1.98 1.7 3.96 0 6 C-1 3 -1 3 0 0 Z " fill="#D4A747" transform="translate(412,92)"/>
<path d="M0 0 C1.65 0 3.3 0 5 0 C5.33 0.66 5.66 1.32 6 2 C8.01669827 3.13350534 8.01669827 3.13350534 10 4 C8.375 4.75 8.375 4.75 6 5 C2.75 3.125 2.75 3.125 0 1 C0 0.67 0 0.34 0 0 Z " fill="#D2AA44" transform="translate(236,58)"/>
<path d="M0 0 C1.98 0 3.96 0 6 0 C3.06171403 2.50298434 0.82097239 3.46930939 -3 4 C-3 3.34 -3 2.68 -3 2 C-2.01 2 -1.02 2 0 2 C0 1.34 0 0.68 0 0 Z " fill="#D6AB44" transform="translate(348,255)"/>
<path d="M0 0 C0.33 0.66 0.66 1.32 1 2 C-1.52788007 4.79872437 -3.20411134 6.45773019 -7 7 C-4.66666667 4.66666667 -2.33333333 2.33333333 0 0 Z " fill="#2F1D05" transform="translate(445,68)"/>
<path d="M0 0 C1.65 0 3.3 0 5 0 C5 0.66 5 1.32 5 2 C5.99 2.33 6.98 2.66 8 3 C8 3.66 8 4.32 8 5 C4.62496331 3.8141763 2.35277269 2.72426311 0 0 Z " fill="#271403" transform="translate(183,38)"/>
<path d="" fill="#FFFFFF" transform="translate(0,0)"/>
<path d="" fill="#FFFFFF" transform="translate(0,0)"/>
<path d="" fill="#FFFFFF" transform="translate(0,0)"/>
<path d="" fill="#FFFFFF" transform="translate(0,0)"/>
<path d="" fill="#FFFFFF" transform="translate(0,0)"/>
<path d="" fill="#FFFFFF" transform="translate(0,0)"/>
<path d="" fill="#FFFFFF" transform="translate(0,0)"/>
<path d="" fill="#FFFFFF" transform="translate(0,0)"/>
<path d="" fill="#FFFFFF" transform="translate(0,0)"/>
<path d="" fill="#FFFFFF" transform="translate(0,0)"/>
<path d="" fill="#FFFFFF" transform="translate(0,0)"/>
<path d="" fill="#FFFFFF" transform="translate(0,0)"/>
<path d="" fill="#FFFFFF" transform="translate(0,0)"/>
<path d="" fill="#FFFFFF" transform="translate(0,0)"/>
<path d="" fill="#FFFFFF" transform="translate(0,0)"/>
<path d="" fill="#FFFFFF" transform="translate(0,0)"/>
<path d="" fill="#FFFFFF" transform="translate(0,0)"/>
<path d="" fill="#FFFFFF" transform="translate(0,0)"/>
<path d="" fill="#FFFFFF" transform="translate(0,0)"/>
<path d="" fill="#FFFFFF" transform="translate(0,0)"/>
<path d="" fill="#FFFFFF" transform="translate(0,0)"/>
<path d="" fill="#FFFFFF" transform="translate(0,0)"/>
<path d="" fill="#FFFFFF" transform="translate(0,0)"/>
<path d="" fill="#FFFFFF" transform="translate(0,0)"/>
<path d="" fill="#FFFFFF" transform="translate(0,0)"/>
<path d="" fill="#FFFFFF" transform="translate(0,0)"/>
<path d="" fill="#FFFFFF" transform="translate(0,0)"/>
<path d="" fill="#FFFFFF" transform="translate(0,0)"/>
<path d="" fill="#FFFFFF" transform="translate(0,0)"/>
<path d="" fill="#FFFFFF" transform="translate(0,0)"/>
<path d="" fill="#FFFFFF" transform="translate(0,0)"/>
<path d="" fill="#FFFFFF" transform="translate(0,0)"/>
<path d="" fill="#FFFFFF" transform="translate(0,0)"/>
<path d="" fill="#FFFFFF" transform="translate(0,0)"/>
<path d="" fill="#FFFFFF" transform="translate(0,0)"/>
<path d="" fill="#FFFFFF" transform="translate(0,0)"/>
<path d="" fill="#FFFFFF" transform="translate(0,0)"/>
<path d="" fill="#000000" transform="translate(0,0)"/>
</svg>
